<?xml version="1.0" encoding="UTF-8" standalone="no"?>
<svg
   xmlns:dc="http://purl.org/dc/elements/1.1/"
   xmlns:cc="http://creativecommons.org/ns#"
   xmlns:rdf="http://www.w3.org/1999/02/22-rdf-syntax-ns#"
   xmlns:svg="http://www.w3.org/2000/svg"
   xmlns="http://www.w3.org/2000/svg"
   id="svg5485"
   version="1.1"
   viewBox="0 0 119.44914 92.002679"
   height="92.002678mm"
   width="119.44914mm">
  <defs
     id="defs5479">
    <filter
       height="1.0305902"
       y="-0.015295115"
       width="1.0197459"
       x="-0.0098730018"
       id="filter5719"
       style="color-interpolation-filters:sRGB">
      <feGaussianBlur
         id="feGaussianBlur5721"
         stdDeviation="8.5146289" />
    </filter>
    <filter
       style="color-interpolation-filters:sRGB"
       id="filter5110"
       x="-0.0073730061"
       width="1.014746"
       y="-0.02995068"
       height="1.0599014">
      <feGaussianBlur
         stdDeviation="5.3338011"
         id="feGaussianBlur5112" />
    </filter>
    <filter
       height="1.0279875"
       y="-0.013993768"
       width="1.021007"
       x="-0.010503508"
       id="filter5153"
       style="color-interpolation-filters:sRGB">
      <feGaussianBlur
         id="feGaussianBlur5155"
         stdDeviation="0.53412834" />
    </filter>
  </defs>
  <metadata
     id="metadata5482">
    <rdf:RDF>
      <cc:Work
         rdf:about="">
        <dc:format>image/svg+xml</dc:format>
        <dc:type
           rdf:resource="http://purl.org/dc/dcmitype/StillImage" />
        <dc:title></dc:title>
      </cc:Work>
    </rdf:RDF>
  </metadata>
  <path
     style="fill:#05132b;fill-opacity:1;fill-rule:evenodd;stroke:none;stroke-width:0.39687502;stroke-linecap:butt;stroke-linejoin:miter;stroke-miterlimit:4;stroke-dasharray:none;stroke-opacity:1;filter:url(#filter5153)"
     d="M -0.39492783,0.72760417 V 73.115937 c 0.88244009,0.85654 2.87525213,0.41988 3.94992213,2.15099 3.16865,5.10412 -2.60097013,15.03555 1.44874,16.28622 7.4113507,2.28885 1.0433,-13.2957 3.42403,-18.08044 0.68079,-1.36825 0.63183,-4.67161 3.9508107,-1.24227 2.4802,2.56267 -2.140901,11.35985 2.5022,9.79938 2.44954,-0.82325 -0.71909,-9.44133 1.44862,-9.93733 0.90979,-0.20818 0.596,3.11952 3.55578,2.76031 3.04762,-0.36987 2.37236,-0.99483 4.74101,-2.48427 5.92627,-3.72651 -0.61914,5.73807 3.29238,4.96867 3.20205,-0.62985 -1.40579,-7.70701 2.63396,-8.6952 5.902483,-1.44384 -2.132,19.57497 2.633841,20.56484 5.855373,1.21617 5.07954,-10.39669 3.950943,-16.28622 -0.77364,-4.03722 4.864753,-9.32226 5.267797,-5.52076 0.193474,1.82495 -2.479519,12.15286 1.448611,11.45552 4.455583,-0.79098 0.345695,-8.07555 1.448619,-11.86965 1.396604,-4.80437 3.464488,-2.16251 4.47761,0.69018 2.860444,8.05436 -3.381862,21.21915 1.580377,21.25489 5.293423,0.0381 0.09643,-11.04913 1.712008,-17.11436 1.999389,-7.50613 3.548388,-4.593 4.733079,-0.27604 1.308962,3.72651 2.700428,1.82722 4.222259,4.27862 3.168648,5.10412 -2.601094,15.03555 1.448619,16.28622 7.411346,2.28885 1.043294,-13.2957 3.424023,-18.08044 0.680792,-1.36825 0.631832,-4.67161 3.950817,-1.24227 2.480194,2.56267 -2.140901,11.35985 2.502204,9.79938 2.44953,-0.82325 -0.71897,-9.44133 1.44874,-9.93733 0.90978,-0.20818 0.59587,3.11952 3.55565,2.76031 3.04763,-0.36987 2.37248,-0.99483 4.74113,-2.48427 5.92628,-3.72651 -0.61926,5.73807 3.29227,4.96867 3.20204,-0.62985 -1.4058,-7.70702 2.63396,-8.6952 5.90248,-1.44384 -2.13188,19.57496 2.63396,20.56484 5.85537,1.21617 5.07941,-10.39669 3.95081,-16.28622 -0.77364,-4.03722 4.864768,-9.32226 5.267808,-5.52076 0.19348,1.82495 -2.479528,12.15286 1.44861,11.45552 4.45559,-0.79098 0.3457,-8.07555 1.44862,-11.86965 1.39661,-4.80437 3.4645,-2.16252 4.47761,0.69018 2.86045,8.05436 -3.38186,21.21915 1.58038,21.25489 5.29342,0.0381 0.0964,-11.04913 1.71201,-17.11436 1.99939,-7.50613 3.30544,-6.39035 4.49812,-2.21141 0.82899,2.90466 5.42067,3.66586 5.42067,3.66586 l 0.18709,-73.09537283 z"
     id="path5151" />
  <path
     id="path6057"
     d="M -0.92409449,0.19843751 V 72.58677 c 0.88244009,0.85654 2.87525209,0.41988 3.94992209,2.15099 3.16865,5.10412 -2.60097009,15.03555 1.44874,16.28622 7.4113504,2.28885 1.0433,-13.2957 3.42403,-18.08044 0.68079,-1.36825 0.63183,-4.67161 3.9508104,-1.24227 2.4802,2.56267 -2.1409004,11.35985 2.5022,9.79938 2.44954,-0.82325 -0.71909,-9.44133 1.44862,-9.93733 0.90979,-0.20818 0.596,3.11952 3.55578,2.76031 3.04762,-0.36987 2.37236,-0.99483 4.74101,-2.48427 5.92627,-3.72651 -0.61914,5.73807 3.29238,4.96867 3.20205,-0.62985 -1.40579,-7.70701 2.63396,-8.6952 5.902483,-1.44384 -2.132,19.57497 2.633841,20.56484 5.855373,1.21617 5.07954,-10.39669 3.950943,-16.28622 -0.77364,-4.03722 4.864753,-9.32226 5.267797,-5.52076 0.193474,1.82495 -2.479519,12.15286 1.448611,11.45552 4.455583,-0.79098 0.345695,-8.07555 1.448619,-11.86965 1.396604,-4.80437 3.464488,-2.16251 4.47761,0.69018 2.860444,8.05436 -3.381862,21.21915 1.580377,21.25489 5.293423,0.0381 0.09643,-11.04913 1.712008,-17.11436 1.999389,-7.50613 3.548388,-4.593 4.733079,-0.27604 1.308962,3.72651 2.700428,1.82722 4.222259,4.27862 3.168648,5.10412 -2.601094,15.03555 1.448619,16.28622 7.411346,2.28885 1.043294,-13.2957 3.424023,-18.08044 0.680792,-1.36825 0.631832,-4.67161 3.950817,-1.24227 2.480194,2.56267 -2.140901,11.35985 2.502204,9.79938 2.44953,-0.82325 -0.71897,-9.44133 1.44874,-9.93733 0.90978,-0.20818 0.59587,3.11952 3.55565,2.76031 3.04763,-0.36987 2.37248,-0.99483 4.74113,-2.48427 5.92628,-3.72651 -0.61926,5.73807 3.29227,4.96867 3.20204,-0.62985 -1.4058,-7.70702 2.63396,-8.6952 5.90248,-1.44384 -2.13188,19.57496 2.63396,20.56484 5.85537,1.21617 5.07941,-10.39669 3.95081,-16.28622 -0.77364,-4.03722 4.86477,-9.32226 5.267805,-5.52076 0.19348,1.82495 -2.479525,12.15286 1.44861,11.45552 4.45559,-0.79098 0.3457,-8.07555 1.44862,-11.86965 1.39661,-4.80437 3.4645,-2.16252 4.47761,0.69018 2.86045,8.05436 -3.38186,21.21915 1.58038,21.25489 5.29342,0.0381 0.0964,-11.04913 1.71201,-17.11436 1.99939,-7.50613 3.30544,-6.39035 4.49812,-2.21141 0.82899,2.90466 5.42067,3.66586 5.42067,3.66586 L 121.1216,0.19843751 Z"
     style="fill:#1446a0;fill-opacity:1;fill-rule:evenodd;stroke:none;stroke-width:0.39687502;stroke-linecap:butt;stroke-linejoin:miter;stroke-miterlimit:4;stroke-dasharray:none;stroke-opacity:1" />
</svg>
