<?xml version="1.0" encoding="UTF-8" standalone="no"?>
<svg
   xmlns:dc="http://purl.org/dc/elements/1.1/"
   xmlns:cc="http://creativecommons.org/ns#"
   xmlns:rdf="http://www.w3.org/1999/02/22-rdf-syntax-ns#"
   xmlns:svg="http://www.w3.org/2000/svg"
   xmlns="http://www.w3.org/2000/svg"
   id="svg6069"
   version="1.1"
   viewBox="0 0 321.79429 149.99141"
   height="149.99141mm"
   width="321.79431mm">
  <defs
     id="defs6063">
    <filter
       height="1.0558667"
       y="-0.027933354"
       width="1.0420753"
       x="-0.021037646"
       id="filter6792"
       style="color-interpolation-filters:sRGB">
      <feGaussianBlur
         id="feGaussianBlur6794"
         stdDeviation="4.5643547" />
    </filter>
    <filter
       height="1.0278944"
       y="-0.013947199"
       width="1.0210598"
       x="-0.010529898"
       id="filter6772"
       style="color-interpolation-filters:sRGB">
      <feGaussianBlur
         id="feGaussianBlur6774"
         stdDeviation="2.2738253" />
    </filter>
    <filter
       height="1.0268005"
       y="-0.013400236"
       width="1.0217294"
       x="-0.01086471"
       id="filter4592"
       style="color-interpolation-filters:sRGB">
      <feGaussianBlur
         id="feGaussianBlur4594"
         stdDeviation="0.27273127" />
    </filter>
    <filter
       height="1.0420719"
       y="-0.021035969"
       width="1.0157839"
       x="-0.0078919594"
       id="filter6114"
       style="color-interpolation-filters:sRGB">
      <feGaussianBlur
         id="feGaussianBlur6116"
         stdDeviation="0.78706648" />
    </filter>
    <clipPath
       id="clipPath6138"
       clipPathUnits="userSpaceOnUse">
      <rect
         transform="matrix(0,-1,-1,0,0,0)"
         y="321.24084"
         x="-636.35107"
         height="111.56445"
         width="192.65141"
         id="rect6140"
         style="opacity:0.41199999;fill:#6c6c6c;fill-opacity:0.98039216;fill-rule:evenodd;stroke:none;stroke-width:0.35169077;stroke-linecap:round;stroke-linejoin:miter;stroke-miterlimit:4;stroke-dasharray:none;stroke-dashoffset:0;stroke-opacity:1" />
    </clipPath>
  </defs>
  <metadata
     id="metadata6066">
    <rdf:RDF>
      <cc:Work
         rdf:about="">
        <dc:format>image/svg+xml</dc:format>
        <dc:type
           rdf:resource="http://purl.org/dc/dcmitype/StillImage" />
        <dc:title></dc:title>
      </cc:Work>
    </rdf:RDF>
  </metadata>
  <g
     transform="matrix(0,-1,-1.2627521,0,815.10394,-307.55876)"
     id="g4502">
    <g
       transform="matrix(1.3444372,0,0,1.3227813,124.32939,-196.25533)"
       id="g5248">
      <g
         transform="matrix(0,-0.59867874,-0.74380563,0,-508.64965,751.62388)"
         id="g4602"
         style="fill:#999999;filter:url(#filter4592)" />
      <path
         clip-path="url(#clipPath6138)"
         id="path5521"
         d="m -320.45369,538.2214 c -0.0115,3.19874 -3.04064,6.18123 -7.25772,6.92414 -4.65331,0.81978 -12.25241,-0.82319 -12.95026,-4.37828 -0.69786,-3.55511 5.77008,-7.67569 10.4234,-8.49546 4.65331,-0.81978 8.99141,1.39707 9.68926,4.95218 0.0654,0.33329 0.0965,0.66652 0.0953,0.99742 z m -4.42105,33.25141 c -0.007,0.40729 -0.0765,0.84378 -0.21371,1.31175 -4.01436,13.69173 -30.06315,-6.9841 -37.66886,5.87412 -7.6057,12.85823 30.63801,7.70755 22.43427,21.64579 -8.20374,13.93823 -13.37262,-12.88105 -26.78652,-2.53874 -13.41391,10.3423 27.19437,25.58391 10.52988,35.13396 -16.66448,9.55004 -7.0563,-25.85523 -27.0206,-22.7942 -19.9643,3.06101 23.87608,23.43032 0.19449,25.71223 -4.40788,0.42473 -7.29814,0.80535 -9.19726,1.16696 h -39.41506 V 444.33327 h 43.18691 c 6.7064,16.18802 -5.16667,15.18252 -7.62479,29.69791 -2.47298,14.60309 36.62607,-26.17404 41.31463,-6.69365 4.68856,19.48036 -54.29539,14.89619 -36.94009,26.69696 13.921,9.46561 13.90792,-13.52246 26.63738,-5.82585 12.72946,7.6966 -32.78958,13.98633 -24.12244,27.48309 8.66714,13.49675 33.5535,-30.52081 48.80759,-11.45743 15.25408,19.06339 -34.99572,6.36009 -37.78725,27.94685 -2.79153,21.58675 29.71561,-4.85583 29.03394,10.0179 -0.68167,14.87372 -24.43949,3.64589 -22.85208,16.86469 1.5006,12.4959 45.56262,1.39286 47.43384,11.70709 0.0406,0.22376 0.0597,0.4576 0.0557,0.70198 z m -8.04299,50.74753 c -0.0201,1.29651 -0.42997,2.50215 -1.26804,3.47862 -2.55403,2.97593 -8.11849,2.6971 -12.42868,-0.62277 -4.31019,-3.31986 -8.03325,-11.30394 -5.47922,-14.27986 2.55404,-2.97594 10.4178,0.18318 14.72799,3.50306 2.42449,1.86741 3.93592,4.2992 4.33956,6.5993 0.0785,0.44724 0.11508,0.88948 0.10839,1.32165 z m -28.8798,-173.21055 c -0.01,2.6077 -1.92884,6.0635 -5.23208,8.93725 -4.64631,4.04219 -14.82463,10.47475 -17.11725,8.10968 -2.29263,-2.3651 4.16888,-12.63225 8.81519,-16.67444 4.6463,-4.04218 10.27135,-5.40161 12.56398,-3.03652 0.42987,0.44346 0.71186,0.98644 0.856,1.60256 0.0781,0.33375 0.11555,0.68894 0.11416,1.06147 z"
         style="opacity:1;fill:#6c6c6c;fill-opacity:0.98039216;fill-rule:evenodd;stroke:none;stroke-width:0.38309586;stroke-linecap:round;stroke-linejoin:miter;stroke-miterlimit:4;stroke-dasharray:none;stroke-dashoffset:0;stroke-opacity:1;filter:url(#filter6114)" />
      <path
         style="opacity:1;fill:#700c9e;fill-opacity:0.98039216;fill-rule:evenodd;stroke:none;stroke-width:2.16979313;stroke-linecap:round;stroke-linejoin:miter;stroke-miterlimit:4;stroke-dasharray:none;stroke-dashoffset:0;stroke-opacity:1"
         d="m 564.59766,-3.9238281 c -20.19397,0.058363 -39.02278,15.4505441 -43.71289,36.8789061 -5.17537,23.645039 5.19693,62.258676 27.64062,65.804688 22.44382,3.546064 48.45751,-29.319755 53.63281,-52.964844 5.17537,-23.645039 -8.81985,-45.68836376 -31.26367,-49.2343751 -2.10411,-0.3324386 -4.20784,-0.4904126 -6.29687,-0.484375 z M 354.67773,18.541016 c -2.57125,0.03319 -5.32687,0.388809 -8.28125,1.085937 C 259.95903,40.025271 390.48792,172.38798 309.3125,211.03516 228.13702,249.68228 260.65386,55.353091 172.66016,97.039062 84.666514,138.72503 253.97969,164.98984 188.6875,233.15039 123.39538,301.31099 27.173372,94.966633 -33.117188,179.64453 -93.407684,264.32238 130.10979,215.49997 110.78516,316.94531 91.46065,418.39066 -37.133103,195.62288 -51.539062,315.95703 c -2.681387,22.39794 -5.084246,37.08432 -7.367188,46.73438 V 562.97266 H 1157.3242 V 343.52539 c -102.1968,-34.0775 -95.849,26.25357 -187.48631,38.74414 C 877.64691,394.83558 1135.0776,196.16009 1012.0957,172.33594 889.1139,148.51178 918.0543,448.22915 843.55469,360.04102 783.79721,289.30372 928.92356,289.37018 880.33398,224.6875 831.74447,160.00482 792.03667,391.30238 706.83008,347.26172 621.62355,303.22106 899.51141,176.76509 779.16211,99.253906 658.81275,21.742778 739.01016,277.07897 602.73047,291.26367 466.45084,305.44838 633.38589,140.26863 539.48633,143.73242 c -93.8995,3.4638 -23.01695,124.18531 -106.46875,116.11914 -78.88805,-7.62505 -8.79329,-231.519041 -73.9082,-241.027341 -1.41262,-0.20629 -2.88889,-0.303119 -4.43165,-0.283203 z M 34.302734,59.410156 c -8.185001,0.101987 -15.796323,2.18483 -21.960937,6.44336 -18.787387,12.977888 -17.0270789,41.252764 3.931641,63.154294 20.958656,21.90153 71.363066,40.81969 90.150392,27.8418 C 125.21128,143.87167 105.26738,103.91325 84.308594,82.011719 72.519421,69.692067 57.167279,62.011969 42.646484,59.960938 39.823007,59.562116 37.031068,59.376161 34.302734,59.410156 Z M 1127.8008,206.1582 c -16.4627,0.0495 -38.2796,9.80107 -56.4219,26.58594 -25.5188,23.60947 -66.1283,75.32894 -51.1973,86.97852 14.9311,11.64962 79.7488,-21.1835 105.2676,-44.79297 25.5188,-23.60942 34.101,-52.19217 19.1699,-63.8418 -2.7996,-2.18431 -6.2275,-3.61718 -10.1171,-4.34961 -2.107,-0.39676 -4.3494,-0.58714 -6.7012,-0.58008 z"
         transform="matrix(0,-0.15840042,-0.19679858,0,-322.01309,627.02031)"
         id="path6112" />
    </g>
  </g>
</svg>
