<?xml version="1.0" encoding="UTF-8" standalone="no"?>
<svg
   xmlns:dc="http://purl.org/dc/elements/1.1/"
   xmlns:cc="http://creativecommons.org/ns#"
   xmlns:rdf="http://www.w3.org/1999/02/22-rdf-syntax-ns#"
   xmlns:svg="http://www.w3.org/2000/svg"
   xmlns="http://www.w3.org/2000/svg"
   id="svg6069"
   version="1.1"
   viewBox="0 0 153.91524 119.09229"
   height="119.09229mm"
   width="153.91525mm">
  <defs
     id="defs6063">
    <filter
       height="1.0558667"
       y="-0.027933354"
       width="1.0420753"
       x="-0.021037646"
       id="filter6792"
       style="color-interpolation-filters:sRGB">
      <feGaussianBlur
         id="feGaussianBlur6794"
         stdDeviation="4.5643547" />
    </filter>
    <filter
       height="1.0278944"
       y="-0.013947199"
       width="1.0210598"
       x="-0.010529898"
       id="filter6772"
       style="color-interpolation-filters:sRGB">
      <feGaussianBlur
         id="feGaussianBlur6774"
         stdDeviation="2.2738253" />
    </filter>
    <filter
       height="1.0268005"
       y="-0.013400236"
       width="1.0217294"
       x="-0.01086471"
       id="filter4592"
       style="color-interpolation-filters:sRGB">
      <feGaussianBlur
         id="feGaussianBlur4594"
         stdDeviation="0.27273127" />
    </filter>
    <filter
       height="1.0267955"
       y="-0.013397748"
       width="1.0217327"
       x="-0.010866346"
       id="filter5499"
       style="color-interpolation-filters:sRGB">
      <feGaussianBlur
         id="feGaussianBlur5501"
         stdDeviation="1.0243343" />
    </filter>
  </defs>
  <metadata
     id="metadata6066">
    <rdf:RDF>
      <cc:Work
         rdf:about="">
        <dc:format>image/svg+xml</dc:format>
        <dc:type
           rdf:resource="http://purl.org/dc/dcmitype/StillImage" />
        <dc:title></dc:title>
      </cc:Work>
    </rdf:RDF>
  </metadata>
  <g
     transform="matrix(0,-1,-1.2627521,0,650.79145,-408.95904)"
     id="g4502">
    <g
       transform="matrix(1.3444372,0,0,1.3227813,124.32939,-196.25533)"
       id="g5248">
      <g
         transform="matrix(0,-0.59867874,-0.74380563,0,-508.64965,751.62388)"
         id="g4602"
         style="fill:#999999;filter:url(#filter4592)" />
      <g
         transform="matrix(2.2776718,0,0,2.4145513,577.16132,-757.51737)"
         id="g5506">
        <path
           id="path4604"
           transform="matrix(0,-0.59867874,-0.74380563,0,-508.64965,751.62388)"
           style="opacity:1;fill:#999999;fill-opacity:1;stroke:none;stroke-width:0.52916664;stroke-linecap:round;stroke-linejoin:miter;stroke-miterlimit:4;stroke-dasharray:none;stroke-dashoffset:0;stroke-opacity:1;filter:url(#filter4592)"
           d="m 362.27631,-68.535738 c 1.0733,-0.272785 4.48654,-1.260644 4.55549,-0.272097 0.069,0.988538 -3.23249,3.579152 -4.30578,3.851936 -1.0733,0.272784 -1.99929,-0.307452 -2.06824,-1.295999 -0.069,-0.988547 0.74542,-2.010987 1.81853,-2.28384 z m 58.04484,1.501612 a 2.0919659,1.69227 30.131187 0 1 -0.44983,2.398937 2.0919659,1.69227 30.131187 0 1 -2.7907,-0.857279 2.0919659,1.69227 30.131187 0 1 0.44981,-2.398941 2.0919659,1.69227 30.131187 0 1 2.79072,0.857283 z m -50.98414,-3.157876 c 1.4936,4.946607 9.65297,-8.541961 15.9027,-0.496973 3.16657,4.07618 -5.2793,5.918653 -1.02207,9.339961 4.73548,3.805645 4.16901,-10.435942 9.3624,-8.328827 8.8574,3.593713 -1.41891,12.169137 6.28098,11.452665 6.3074,-0.586902 -1.81151,-7.724425 2.74869,-10.301922 5.94742,-3.36158 8.76976,4.929283 11.61855,0.707476 3.69224,-6.431887 -11.333,-1.516495 -7.60949,-10.411331 2.77734,-6.634591 10.24292,7.167159 10.91466,-0.410844 0.67174,-7.578002 -8.19258,1.409258 -8.52775,-6.851916 -0.18839,-4.64345 11.49262,-6.878528 9.42075,-11.395768 -3.05394,-6.658409 -9.42077,11.10967 -17.50197,6.136028 -6.0837,-4.21868 8.25641,-7.015058 4.14735,-10.231847 -3.61221,-2.82784 -2.91212,6.713119 -9.77774,5.575747 -3.40742,-0.56448 6.56211,-12.149397 0.23306,-11.600997 -6.7314,0.58326 -4.34965,11.179946 -6.37752,12.479 -5.64451,3.615879 -11.23525,-10.36135 -15.61435,-4.369903 -3.17427,6.63099 10.8652,4.605264 6.9881,11.40531 -4.30411,7.548992 -21.95076,-6.132836 -16.98364,2.879724 2.08095,3.775769 13.98249,-0.168652 14.59674,4.383026 1.27024,9.412716 -9.82394,6.64841 -8.79945,10.041391 z m 12.9437,-30.183808 a 3.0226142,2.541744 54.614278 0 1 0.32189,-3.93613 3.0226142,2.541744 54.614278 0 1 3.82254,0.99239 3.0226142,2.541744 54.614278 0 1 -0.32188,3.936122 3.0226142,2.541744 54.614278 0 1 -3.82255,-0.992382 z" />
        <path
           id="path4616"
           style="opacity:1;fill:#1446a0;fill-opacity:1;stroke:none;stroke-width:0.35311738;stroke-linecap:round;stroke-linejoin:miter;stroke-miterlimit:4;stroke-dasharray:none;stroke-dashoffset:0;stroke-opacity:1"
           d="m -457.27878,534.41996 c 0.2029,-0.64257 0.93767,-2.686 0.20239,-2.72728 -0.73529,-0.0413 -2.6622,1.93522 -2.8651,2.57778 -0.20289,0.64256 0.22869,1.19693 0.96397,1.23821 0.73529,0.0413 1.49579,-0.44627 1.69874,-1.08871 z m -1.11692,-34.75018 a 1.3992265,1.1266513 29.075662 0 0 -1.78435,0.26929 1.3992265,1.1266513 29.075662 0 0 0.63766,1.67073 1.3992265,1.1266513 29.075662 0 0 1.78434,-0.26929 1.3992265,1.1266513 29.075662 0 0 -0.63765,-1.67073 z m 2.34886,30.52308 c -3.67932,-0.89418 6.35355,-5.77902 0.36965,-9.5206 -3.03189,-1.89576 -4.40233,3.1606 -6.94712,0.61189 -2.83066,-2.83503 7.76231,-2.4959 6.19503,-5.60507 -2.67302,-5.30274 -9.05147,0.84947 -8.51856,-3.76029 0.43654,-3.77611 5.74547,1.08451 7.66263,-1.64558 2.50036,-3.5606 -3.66643,-5.25027 -0.52622,-6.95578 4.78407,-2.21047 1.12797,6.78482 7.744,4.55564 4.93485,-1.66274 -5.33097,-6.13222 0.30559,-6.53438 5.63656,-0.40215 -1.04821,4.90473 5.0965,5.10538 3.45382,0.11279 5.11628,-6.88038 8.47623,-5.64 4.95256,1.82833 -8.26343,5.64002 -4.56401,10.47806 3.13788,3.64218 5.21784,-4.94294 7.6105,-2.48293 2.10337,2.16255 -4.99325,1.74342 -4.14727,5.85372 0.41987,2.03995 9.03679,-3.92859 8.62889,-0.13952 -0.43383,4.02994 -8.31571,2.60404 -9.28195,3.81808 -2.68951,3.37925 7.70683,6.72631 3.25036,9.34798 -4.93217,1.90037 -3.42542,-6.50476 -8.48334,-4.18363 -5.61498,2.57678 4.56164,13.14146 -2.14195,10.16775 -2.80844,-1.24582 0.12544,-8.37102 -3.26012,-8.73876 -7.00123,-0.76047 -4.94513,5.88138 -7.46884,5.26804 z m 22.45088,-7.74912 a 2.1704288,1.5762397 15.177432 0 0 2.92771,-0.1927 2.1704288,1.5762397 15.177432 0 0 -0.73814,-2.28848 2.1704288,1.5762397 15.177432 0 0 -2.92771,0.19271 2.1704288,1.5762397 15.177432 0 0 0.73814,2.28847 z" />
        <path
           style="opacity:1;fill:#6595ed;fill-opacity:0.61616163;stroke:none;stroke-width:1.99999988;stroke-linecap:round;stroke-linejoin:miter;stroke-miterlimit:4;stroke-dasharray:none;stroke-dashoffset:0;stroke-opacity:1;filter:url(#filter5499)"
           d="m 149.22852,162.5293 c -0.34412,0.0103 -0.70241,0.0321 -1.07618,0.0644 -25.44147,2.20444 -16.44109,42.25427 -24.10546,47.16406 -21.3336,13.66631 -42.462773,-39.16045 -59.013677,-16.51562 -3.398229,7.09883 -1.57282,11.56953 2.451172,14.91992 -2.52084,-3.10912 -3.216075,-7.1441 -0.451172,-12.91992 16.550904,-22.64483 37.680077,30.18193 59.013677,16.51562 7.66437,-4.90979 -1.33601,-44.95962 24.10546,-47.16406 2.44924,-0.21222 4.24345,0.0614 5.52149,0.7168 -0.91089,-1.83557 -2.89886,-2.88769 -6.44531,-2.78125 z m -45.36133,8.73632 a 11.424053,9.6065916 54.614279 0 0 -4.564456,1.52735 11.424053,9.6065916 54.614279 0 0 -1.216796,14.87695 11.424053,9.6065916 54.614279 0 0 2.476562,2.62891 11.424053,9.6065916 54.614279 0 1 -0.47656,-0.62891 11.424053,9.6065916 54.614279 0 1 1.21679,-14.87695 11.424053,9.6065916 54.614279 0 1 11.97461,1.12305 11.424053,9.6065916 54.614279 0 0 -9.41015,-4.6504 z m 75.91601,12.11329 c -8.99436,-0.31668 -9.80652,26.82191 -32.51172,23.06054 -0.20218,-0.0335 -0.39261,-0.0791 -0.57031,-0.13281 0.33699,1.14369 1.14069,1.89597 2.57031,2.13281 25.88034,4.28737 23.32063,-31.56274 36.85157,-21.14843 -0.45351,-0.63806 -1.07132,-1.2798 -1.89649,-1.92579 -1.70655,-1.33599 -3.15845,-1.94108 -4.44336,-1.98632 z m 48.61328,11.75195 c -12.91597,-0.56349 -34.07496,44.76706 -59.8457,28.90625 -0.68532,-0.47523 -1.29754,-0.94429 -1.84961,-1.41016 0.91312,1.11017 2.16983,2.24533 3.84961,3.41016 27.65016,17.01751 49.98972,-36.40359 62.53711,-28.00586 -1.41388,-1.93648 -2.9795,-2.8257 -4.69141,-2.90039 z M 91.964844,222.49023 c 2.590241,3.26457 3.072522,7.55729 -0.519532,13.85743 -16.267507,28.53161 -82.9647783,-23.17844 -64.191406,10.88476 0.635517,1.15311 1.517589,2.11355 2.595703,2.91797 -0.214545,-0.29321 -0.418095,-0.59571 -0.595703,-0.91797 -18.773372,-34.0632 47.923899,17.64685 64.191406,-10.88476 4.378802,-7.68002 2.691196,-12.37155 -1.480468,-15.85743 z m 111.958986,33.95313 c 5.96685,8.20673 19.70707,0.0865 26.12305,3.90234 -4.49235,-7.33281 -18.58652,1.44686 -26.12305,-3.90234 z m -122.859377,3.7832 c 0.702502,1.00305 1.171796,2.18229 1.359375,3.57227 4.800935,35.57561 -37.129898,25.12735 -33.257812,37.95117 0.627064,2.07677 1.565157,3.29114 2.769531,3.85547 -0.29217,-0.52369 -0.550995,-1.1317 -0.769531,-1.85547 -3.872086,-12.82382 38.058747,-2.37556 33.257812,-37.95117 -0.330611,-2.44987 -1.528854,-4.24782 -3.359375,-5.57227 z m 110.904297,29.31446 c 5.79125,7.48007 21.6889,6.9441 28.22461,11.46484 -3.94401,-6.1904 -20.40657,-5.27563 -28.22461,-11.46484 z m -84.5625,8.12695 c 0.62539,0.68506 1.24714,1.41 1.86328,2.20312 11.80236,15.19264 -19.043736,22.17999 -4.4707,34.77149 -9.372928,-11.37358 17.63404,-18.40143 6.4707,-32.77149 -1.26836,-1.63269 -2.55832,-3.01636 -3.86328,-4.20312 z m -71.001953,7.6875 c -4.167952,-0.0419 -11.136856,1.94548 -13.925781,2.6543 -4.055798,1.03125 -7.133779,4.8946 -6.873047,8.63085 0.136374,1.95515 1.165378,3.48245 2.691406,4.35157 -0.383961,-0.68558 -0.630186,-1.47387 -0.691406,-2.35157 -0.260732,-3.73625 2.817249,-7.5996 6.873047,-8.63085 3.097928,-0.78735 11.338505,-3.14164 15.183593,-2.55079 0.0287,-0.16711 0.04554,-0.32968 0.03516,-0.47851 -0.08144,-1.16757 -1.398446,-1.60595 -3.292969,-1.625 z m 197.642583,4.44141 a 7.9066425,6.3959813 30.13118 0 0 -2.73243,0.64843 7.9066425,6.3959813 30.13118 0 0 -1.70117,9.06641 7.9066425,6.3959813 30.13118 0 0 2.0293,2.03711 7.9066425,6.3959813 30.13118 0 1 -0.0293,-0.0371 7.9066425,6.3959813 30.13118 0 1 1.70117,-9.06641 7.9066425,6.3959813 30.13118 0 1 8.51563,1.19922 7.9066425,6.3959813 30.13118 0 0 -7.7832,-3.84765 z m -82.82813,0.83398 c 10.8963,12.63667 -4.0592,30.74258 4.36133,35.38476 -3.64424,-6.96742 8.69832,-24.06927 -4.36133,-35.38476 z"
           transform="matrix(0,-0.15840041,-0.19679857,0,-396.66295,537.98069)"
           id="path5490" />
      </g>
    </g>
  </g>
</svg>
