<?xml version="1.0" encoding="UTF-8" standalone="no"?>
<svg
   xmlns:dc="http://purl.org/dc/elements/1.1/"
   xmlns:cc="http://creativecommons.org/ns#"
   xmlns:rdf="http://www.w3.org/1999/02/22-rdf-syntax-ns#"
   xmlns:svg="http://www.w3.org/2000/svg"
   xmlns="http://www.w3.org/2000/svg"
   width="119.44914mm"
   height="92.002678mm"
   viewBox="0 0 119.44914 92.002679"
   version="1.1"
   id="svg5485">
  <defs
     id="defs5479">
    <filter
       style="color-interpolation-filters:sRGB"
       id="filter5719"
       x="-0.0098730018"
       width="1.0197459"
       y="-0.015295115"
       height="1.0305902">
      <feGaussianBlur
         stdDeviation="8.5146289"
         id="feGaussianBlur5721" />
    </filter>
    <filter
       height="1.0599014"
       y="-0.02995068"
       width="1.014746"
       x="-0.0073730061"
       id="filter5110"
       style="color-interpolation-filters:sRGB">
      <feGaussianBlur
         id="feGaussianBlur5112"
         stdDeviation="5.3338011" />
    </filter>
  </defs>
  <metadata
     id="metadata5482">
    <rdf:RDF>
      <cc:Work
         rdf:about="">
        <dc:format>image/svg+xml</dc:format>
        <dc:type
           rdf:resource="http://purl.org/dc/dcmitype/StillImage" />
        <dc:title></dc:title>
      </cc:Work>
    </rdf:RDF>
  </metadata>
  <path
     style="fill:#1446a0;fill-opacity:1;fill-rule:evenodd;stroke:#1446a0;stroke-width:0.39687502;stroke-linecap:butt;stroke-linejoin:miter;stroke-miterlimit:4;stroke-dasharray:none;stroke-opacity:1"
     d="M 0.19843751,0.19843751 V 72.58677 c 0.88244009,0.85654 1.75272009,0.41988 2.82739009,2.15099 3.16865,5.10412 -2.60097009,15.03555 1.44874,16.28622 7.4113504,2.28885 1.0433,-13.2957 3.42403,-18.08044 0.68079,-1.36825 0.63183,-4.67161 3.9508104,-1.24227 2.4802,2.56267 -2.1409004,11.35985 2.5022,9.79938 2.44954,-0.82325 -0.71909,-9.44133 1.44862,-9.93733 0.90979,-0.20818 0.596,3.11952 3.55578,2.76031 3.04762,-0.36987 2.37236,-0.99483 4.74101,-2.48427 5.92627,-3.72651 -0.61914,5.73807 3.29238,4.96867 3.20205,-0.62985 -1.40579,-7.70701 2.63396,-8.6952 5.902483,-1.44384 -2.132,19.57497 2.633841,20.56484 5.855373,1.21617 5.07954,-10.39669 3.950943,-16.28622 -0.77364,-4.03722 4.864753,-9.32226 5.267797,-5.52076 0.193474,1.82495 -2.479519,12.15286 1.448611,11.45552 4.455583,-0.79098 0.345695,-8.07555 1.448619,-11.86965 1.396604,-4.80437 3.464488,-2.16251 4.47761,0.69018 2.860444,8.05436 -3.381862,21.21915 1.580377,21.25489 5.293423,0.0381 0.09643,-11.04913 1.712008,-17.11436 1.999389,-7.50613 3.548388,-4.593 4.733079,-0.27604 1.308962,3.72651 2.700428,1.82722 4.222259,4.27862 3.168648,5.10412 -2.601094,15.03555 1.448619,16.28622 7.411346,2.28885 1.043294,-13.2957 3.424023,-18.08044 0.680792,-1.36825 0.631832,-4.67161 3.950817,-1.24227 2.480194,2.56267 -2.140901,11.35985 2.502204,9.79938 2.44953,-0.82325 -0.71897,-9.44133 1.44874,-9.93733 0.90978,-0.20818 0.59587,3.11952 3.55565,2.76031 3.04763,-0.36987 2.37248,-0.99483 4.74113,-2.48427 5.92628,-3.72651 -0.61926,5.73807 3.29227,4.96867 3.20204,-0.62985 -1.4058,-7.70702 2.63396,-8.6952 5.90248,-1.44384 -2.13188,19.57496 2.63396,20.56484 5.85537,1.21617 5.07941,-10.39669 3.95081,-16.28622 -0.77364,-4.03722 4.86477,-9.32226 5.267805,-5.52076 0.19348,1.82495 -2.479525,12.15286 1.44861,11.45552 4.45559,-0.79098 0.3457,-8.07555 1.44862,-11.86965 1.39661,-4.80437 3.4645,-2.16252 4.47761,0.69018 2.86045,8.05436 -3.38186,21.21915 1.58038,21.25489 5.29342,0.0381 0.0964,-11.04913 1.71201,-17.11436 1.99939,-7.50613 3.30544,-6.39035 4.49812,-2.21141 0.82899,2.90466 3.73687,2.95882 3.73687,2.95882 V 0.19843751 Z"
     id="path6057" />
  <path
     style="opacity:0.6;fill:#ffffff;fill-opacity:1;fill-rule:evenodd;stroke:none;stroke-width:4.07629919px;stroke-linecap:butt;stroke-linejoin:miter;stroke-opacity:1;filter:url(#filter5110)"
     d="m 2651.1562,-121.80664 c -10.6181,-0.31501 -21.315,10.56254 -30.2636,39.935546 -17.3954,57.098873 47.426,166.727162 -22.8477,178.63086 -5.9243,1.003532 -10.894,0.484848 -15.0449,-1.289063 5.2359,6.152967 12.6826,9.044337 23.0449,7.289067 70.2737,-11.903702 5.4523,-121.531991 22.8477,-178.630864 11.1849,-36.713356 25.0992,-44.523706 38.1797,-37.707026 -5.1249,-5.00031 -10.5099,-8.06813 -15.9161,-8.22852 z m 922.2325,8.30859 c -10.6182,-0.31501 -21.3151,10.56255 -30.2637,39.93555 -17.3954,57.098872 47.4261,166.727162 -22.8477,178.63086 -5.9245,1.00356 -10.8939,0.48498 -15.0449,-1.28906 5.236,6.15296 12.6826,9.04434 23.0449,7.28906 70.2738,-11.903698 5.4523,-121.531988 22.8477,-178.63086 11.1847,-36.71263 25.0994,-44.523 38.1797,-37.70703 -5.1249,-5.00031 -10.5099,-8.06813 -15.916,-8.22852 z m -1015.5723,18.160159 c -27.1211,1.08213 -74.8545,57.21497 -65.7031,102.7832035 17.8003,88.6338895 30.0368,263.4003175 -62.3145,245.0976575 -1.8763,-0.37187 -3.6206,-0.94017 -5.2519,-1.67774 3.4768,3.96106 7.8383,6.60483 13.2519,7.67774 92.3513,18.30266 80.1148,-156.46377 62.3145,-245.097658 -9.7742,-48.66911 45.3368,-109.373808 70.9238,-102.203124 -3.1565,-4.768235 -7.7668,-6.797689 -13.2207,-6.580079 z m 922.2324,8.308594 c -27.1211,1.08213 -74.8545,57.21497 -65.7031,102.783203 17.8003,88.633894 30.0369,263.400324 -62.3145,245.097654 -1.8757,-0.37174 -3.6191,-0.94052 -5.25,-1.67773 3.4767,3.96039 7.8369,6.60493 13.25,7.67773 92.3514,18.30267 80.1148,-156.46376 62.3145,-245.097654 -9.7742,-48.669111 45.3368,-109.373808 70.9238,-102.203125 -3.1564,-4.768003 -7.7669,-6.797683 -13.2207,-6.580078 z m -697.9902,8.261719 c -11.4982,-0.581387 -24.3281,18.40951 -38.6172,69.595703 -25.481,91.277934 56.4863,258.134245 -27.0019,257.560545 -5.2757,-0.0362 -9.742,-0.97879 -13.5098,-2.72656 4.8782,5.57584 11.8447,8.66015 21.5098,8.72656 83.4882,0.5737 1.5209,-166.282611 27.0019,-257.560545 15.5601,-55.739402 29.3903,-73.284899 41.6543,-68.96875 -3.5349,-4.060903 -7.212,-6.43354 -11.0371,-6.626953 z m 922.2461,8.115234 c -11.5099,-0.388143 -24.3418,18.60287 -38.6309,69.78906275 -25.481,91.27793425 56.4863,258.13424125 -27.0019,257.56055125 -5.2746,-0.0362 -9.7405,-0.97755 -13.5078,-2.72461 4.8781,5.57439 11.8441,8.6582 21.5078,8.72461 83.4882,0.57369 1.5209,-166.282617 27.0019,-257.5605512 15.6807,-56.1713048 29.6051,-73.5618478 41.9551,-69.1269528 -3.6254,-4.135842 -7.3969,-6.529669 -11.3242,-6.66211 z m -1307.9512,12.640625 c -2.4927,0.03829 -5.1865,0.387379 -8.0957,1.066407 -63.7152,14.871647 8.9598,121.378555 -41.543,130.857421 -4.485,0.841801 -8.092,0.865625 -10.9726,0.214844 2.7176,5.247481 8.4398,7.762064 18.9726,5.785156 50.5028,-9.478866 -22.1722,-115.985774 41.543,-130.857421 7.0623,-1.64839 12.852,-1.340317 17.5684,0.623046 -4.2073,-5.057058 -9.9099,-7.805626 -17.4727,-7.689453 z m 922.2324,8.308594 c -2.4927,0.03829 -5.1865,0.387379 -8.0957,1.066406 -63.7152,14.871647 8.9598,121.378556 -41.5429,130.857422 -4.4851,0.8418 -8.092,0.865624 -10.9727,0.214844 2.7176,5.247481 8.4398,7.762064 18.9727,5.785156 50.5027,-9.478866 -22.1723,-115.985775 41.5429,-130.857422 7.0624,-1.648411 12.852,-1.340389 17.5684,0.623047 -4.2073,-5.057058 -9.9098,-7.805626 -17.4727,-7.689453 z M 2064.9629,-25.625 c -16.4248,0.563444 -18.444,27.5441641 -25.6582,41.378906 -37.549,72.007446 62.8883,306.545434 -54.0039,272.099614 -2.1325,-0.62839 -4.0885,-1.40631 -5.8867,-2.31836 3.4803,3.76528 8.0306,6.59269 13.8867,8.31836 116.8922,34.44582 16.4549,-200.092168 54.0039,-272.099614 9.227,-17.6945302 9.9558,-56.892846 43.1953,-34.822265 -11.2163,-9.270712 -19.3879,-12.767588 -25.5371,-12.556641 z m 922.2324,8.308594 c -16.4248,0.563444 -18.4439,27.544164 -25.6582,41.378906 -37.549,72.007446 62.8883,306.54543 -54.0039,272.09961 -2.1324,-0.62839 -4.0885,-1.40631 -5.8867,-2.31836 3.4804,3.76529 8.0307,6.5927 13.8867,8.31836 116.8922,34.44582 16.4549,-200.09216 54.0039,-272.09961 9.2272,-17.694941 9.9555,-56.894245 43.1973,-34.8203125 -11.2174,-9.2719285 -19.3895,-12.7695535 -25.5391,-12.5585935 z m -660.6894,3.324218 c -6.3427,0.07086 -16.3839,3.927999 -31.7188,13.12890675 C 2257.4286,21.551812 2268.079,30.9571 2220.0117,36.523438 c -10.6452,1.232743 -18.5983,-0.424847 -24.7148,-3.673829 6.726,6.837371 16.671,11.53175 32.7148,9.673829 48.0673,-5.566338 37.4169,-14.971626 74.7754,-37.3867192 16.0262,-9.6157385 26.2692,-13.3927574 32.5527,-13.1132813 -1.2066,-3.8102735 -3.889,-6.0708725 -8.8339,-6.0156255 z m 922.2324,8.3085942 c -6.3426,0.070863 -16.382,3.9279981 -31.7168,13.1289063 -37.3585,22.4150925 -26.71,31.8203815 -74.7774,37.3867185 -10.6429,1.232485 -18.5949,-0.424244 -24.7109,-3.671875 6.726,6.835247 16.6702,11.529442 32.7109,9.671875 48.0674,-5.566337 37.4189,-14.971626 74.7774,-37.386719 16.0262,-9.6157379 26.2672,-13.39275681 32.5508,-13.11328075 -1.2067,-3.81027325 -3.8891,-6.07087205 -8.834,-6.01562505 z m -1083.5176,0.5253907 c -0.4129,-0.00271 -0.8426,0.042723 -1.291,0.140625 -34.1892,7.4645291 15.7866,137.1613781 -22.8477,149.5507781 -9.4852,3.04178 -16.5147,3.46415 -21.6582,1.81836 4.769,7.02768 13.7717,9.27622 29.6582,4.18164 38.6343,-12.3894 -11.3415,-142.086249 22.8477,-149.55077812 0.09,-0.0197071 0.1769,-0.0293991 0.2656,-0.0449219 -2.002,-3.66250328 -4.0779,-6.07666248 -6.9746,-6.09570308 z m 922.2344,8.3085937 c -0.4129,-0.00271 -0.8426,0.042723 -1.291,0.140625 -34.1893,7.4645294 15.7846,137.1613744 -22.8496,149.5507844 -9.4861,3.04203 -16.5146,3.46268 -21.6583,1.8164 4.7687,7.02872 13.7707,9.27849 29.6583,4.1836 38.6342,-12.38941 -11.3397,-142.086255 22.8496,-149.5507844 0.09,-0.019599 0.1754,-0.027508 0.2636,-0.042969 -2.0022,-3.6633198 -4.0756,-6.0786132 -6.9726,-6.097656 z M 2843.5098,22.912109 c 10.1341,9.825401 20.6061,10.001304 31.4961,16.386719 -10.8947,-10.153118 -21.3687,-10.630319 -31.4961,-16.386719 z"
     transform="matrix(0.06340327,0,0,0.06644789,-122.01207,71.229827)"
     id="path6059" />
</svg>
