<?xml version="1.0" encoding="UTF-8" standalone="no"?>
<svg
   xmlns:dc="http://purl.org/dc/elements/1.1/"
   xmlns:cc="http://creativecommons.org/ns#"
   xmlns:rdf="http://www.w3.org/1999/02/22-rdf-syntax-ns#"
   xmlns:svg="http://www.w3.org/2000/svg"
   xmlns="http://www.w3.org/2000/svg"
   id="svg8266"
   version="1.1"
   viewBox="0 0 496.80792 750.67542"
   height="750.67542mm"
   width="496.80792mm">
  <defs
     id="defs8260">
    <filter
       height="1.0305902"
       y="-0.015295115"
       width="1.0197459"
       x="-0.0098730018"
       id="filter5719-0"
       style="color-interpolation-filters:sRGB">
      <feGaussianBlur
         id="feGaussianBlur5721-3"
         stdDeviation="8.5146289" />
    </filter>
  </defs>
  <metadata
     id="metadata8263">
    <rdf:RDF>
      <cc:Work
         rdf:about="">
        <dc:format>image/svg+xml</dc:format>
        <dc:type
           rdf:resource="http://purl.org/dc/dcmitype/StillImage" />
        <dc:title></dc:title>
      </cc:Work>
    </rdf:RDF>
  </metadata>
  <g
     transform="translate(242.06368,417.885)"
     id="layer1">
    <g
       id="g8860">
      <path
         id="path6073-1"
         d="m -191.71998,-417.8846 c -22.36322,0.0313 -39.13278,1.86685 -50.3437,3.69848 v 671.9941 c 2.96259,1.52628 6.00768,1.5054 9.60046,7.02749 13.22279,20.32365 -10.85387,59.86878 6.04562,64.84874 30.92781,9.11379 4.35372,-52.94106 14.28853,-71.99302 2.84099,-5.44809 2.63665,-18.60148 16.48686,-4.94646 10.34988,10.20405 -8.93406,45.23282 10.44172,39.01932 10.22202,-3.27803 -3.00027,-37.59367 6.04562,-39.56865 3.79661,-0.82889 2.48666,12.42137 14.83786,10.99106 12.71782,-1.47275 9.90044,-3.96124 19.78485,-9.8919 24.7305,-14.83828 -2.58368,22.84796 13.73921,19.78432 13.36209,-2.50796 -5.86695,-30.68791 10.99105,-34.62268 24.631103,-5.74911 -8.89693,77.94394 10.99106,81.88544 24.434623,4.84257 21.196993,-41.39771 16.487383,-64.84876 -3.22839,-16.07545 20.30084,-37.11949 21.98264,-21.98265 0.8074,7.26663 -10.34709,48.39044 6.04509,45.61377 18.5932,-3.14952 1.44262,-32.15534 6.04512,-47.26275 5.82809,-19.1301 14.45737,-8.61074 18.68517,2.74814 11.9367,32.07102 -14.11256,84.4908 6.59495,84.63309 22.08959,0.1518 0.40235,-43.9956 7.14425,-68.14624 8.34351,-29.888 14.80757,-18.28847 19.7512603,-1.09916 5.46240002,14.83831 11.269,7.27567 17.6195997,17.03671 13.2228,20.32365 -10.85438968,59.86878 6.0451,64.84874 30.92781,9.11378 4.35365,-52.94106 14.28854,-71.99302 2.84091,-5.44809 2.63676,-18.60148 16.48685,-4.94646 10.34999,10.20405 -8.93406,45.23282 10.44175,39.01932 10.22199,-3.27803 -3.00029,-37.59367 6.04562,-39.56865 3.79659,-0.82889 2.48717,12.42136 14.83837,10.99105 12.7178,-1.47275 9.89991,-3.96123 19.78432,-9.89189 24.730497,-14.83829 -2.58368,22.84796 13.739207,19.78432 13.36219,-2.50796 -5.86693,-30.68791 10.99105,-34.62269 24.6312,-5.7491 -8.8964,77.94395 10.99159,81.88545 24.43461,4.84256 21.19656,-41.39771 16.48685,-64.84877 -3.2284,-16.07545 20.30073,-37.11949 21.98264,-21.98264 0.8074,7.26662 -10.34709,48.39044 6.04512,45.61377 18.59327,-3.14952 1.44259,-32.15534 6.04509,-47.26276 5.82811,-19.13009 14.45789,-8.61074 18.6857,2.74815 11.93668,32.07102 -14.11319,84.4908 6.59442,84.63309 22.08959,0.15179 0.40246,-43.99563 7.14425,-68.14624 8.34351,-29.888 14.80775,-18.28877 19.78486,-1.64899 3.94663,13.19485 10.96997,12.59856 16.77828,9.02271 v -664.47001 c -47.69805,-3.39236 -120.3466,-9.1105 -183.979967,-9.45679 -32.44464,-0.17658 -63.1242797,7.98523 -95.07483,7.69358 -42.66594,-0.38944 -106.003463,-10.58373 -152.779813,-12.09021 -5.11611,-0.16479 -9.99268,-0.23593 -14.6296,-0.22945 z"
         style="fill:#db2020;fill-opacity:1;fill-rule:evenodd;stroke:none;stroke-width:0.26458332px;stroke-linecap:butt;stroke-linejoin:miter;stroke-opacity:1" />
      <path
         id="path6075-4"
         d="m 725.37975,959.45321 c -10.6181,-0.3151 -21.3151,10.5625 -30.2637,39.9355 -17.3954,57.09889 47.426,166.72719 -22.8477,178.63089 -5.9243,1.0035 -10.894,0.4848 -15.0449,-1.2891 5.2359,6.153 12.6826,9.0443 23.0449,7.2891 70.2737,-11.9037 5.4523,-121.532 22.8477,-178.6309 11.1849,-36.71339 25.0992,-44.52369 38.1797,-37.70699 -5.1249,-5.0003 -10.5098,-8.0682 -15.916,-8.2285 z m 922.23235,8.3085 c -10.6182,-0.315 -21.3151,10.5626 -30.2637,39.93559 -17.3954,57.0989 47.4261,166.7272 -22.8476,178.6309 -5.9245,1.0035 -10.894,0.4849 -15.045,-1.2891 5.236,6.153 12.6827,9.0443 23.045,7.2891 70.2737,-11.9037 5.4522,-121.532 22.8476,-178.6309 11.1847,-36.71259 25.0994,-44.52299 38.1797,-37.70699 -5.1249,-5.0003 -10.5099,-8.0682 -15.916,-8.2286 z m -1014.55855,18.1465 c -0.3341,0 -0.6728,10e-5 -1.0137,0.014 -27.1211,1.0821 -74.8545,57.21499 -65.7031,102.78319 17.8003,88.6339 30.0368,263.4003 -62.3145,245.0977 -1.8763,-0.3719 -3.6206,-0.9402 -5.2519,-1.6778 3.4768,3.9611 7.8383,6.6049 13.2519,7.6778 92.3513,18.3026 80.1148,-156.4638 62.3145,-245.0977 -9.7742,-48.6691 45.3368,-109.37379 70.9238,-102.20309 -2.9592,-4.4702 -7.1951,-6.5326 -12.207,-6.5938 z m 922.23045,8.3086 c -0.3342,0 -0.6709,10e-5 -1.0118,0.014 -27.1211,1.0821 -74.8545,57.21499 -65.7031,102.78319 17.8003,88.6339 30.037,263.4003 -62.3144,245.0977 -1.8757,-0.3718 -3.6191,-0.9406 -5.25,-1.6778 3.4767,3.9604 7.8369,6.605 13.25,7.6778 92.3514,18.3026 80.1147,-156.4638 62.3144,-245.0977 -9.7742,-48.6691 45.3368,-109.37379 70.9238,-102.2031 -2.9591,-4.46999 -7.1971,-6.53259 -12.2089,-6.59379 z m -699.00195,8.27539 c -11.4982,-0.5814 -24.3281,18.4095 -38.6172,69.5957 -25.481,91.278 56.4863,258.1343 -27.0019,257.5606 -5.2757,-0.036 -9.742,-0.9788 -13.5098,-2.7266 4.8782,5.5758 11.8447,8.6602 21.5098,8.7266 83.4882,0.5737 1.5209,-166.2826 27.0019,-257.5606 15.5601,-55.7394 29.3903,-73.2849 41.6543,-68.9687 -3.5349,-4.0609 -7.212,-6.4336 -11.0371,-6.627 z m 922.24605,8.1153 c -11.5099,-0.3882 -24.3418,18.6028 -38.6309,69.789 -25.481,91.2779 56.4863,258.1343 -27.0019,257.5606 -5.2746,-0.036 -9.7405,-0.9776 -13.5078,-2.7246 4.8781,5.5743 11.8441,8.6582 21.5078,8.7246 83.4882,0.5737 1.5209,-166.2827 27.0019,-257.5606 15.6807,-56.1713 29.6051,-73.5618 41.9551,-69.1269 -3.6254,-4.1359 -7.3969,-6.5297 -11.3242,-6.6621 z m -1307.95115,12.6406 c -2.4927,0.038 -5.1865,0.3874 -8.0957,1.0664 -63.7152,14.8716 8.9598,121.3785 -41.543,130.8574 -4.4849,0.8418 -8.092,0.8656 -10.9726,0.2148 2.7176,5.2475 8.4399,7.7621 18.9726,5.7852 50.5028,-9.4789 -22.1722,-115.9858 41.543,-130.8574 7.0623,-1.6484 12.852,-1.3403 17.5684,0.623 -4.2073,-5.057 -9.9099,-7.8056 -17.4727,-7.6894 z m 922.23235,8.3086 c -2.4927,0.038 -5.1865,0.3874 -8.0957,1.0664 -63.7152,14.8716 8.9598,121.3785 -41.5429,130.8574 -4.4851,0.8418 -8.092,0.8656 -10.9727,0.2148 2.7176,5.2475 8.4398,7.7621 18.9727,5.7852 50.5027,-9.4789 -22.1723,-115.9858 41.5429,-130.8574 7.0624,-1.6484 12.852,-1.3404 17.5684,0.623 -4.2073,-5.057 -9.9098,-7.8056 -17.4727,-7.6894 z m -1253.62295,24.0781 c -16.4248,0.5634 -18.444,27.5442 -25.6582,41.3789 -37.549007,72.0074 62.8883,306.5454 -54.003907,272.0996 -2.1325,-0.6284 -4.0885,-1.4063 -5.8867,-2.3183 3.4803,3.7652 8.0306,6.5926 13.8867,8.3183 116.892207,34.4458 16.4549,-200.0922 54.003907,-272.0996 9.227,-17.6945 9.9558,-56.8928 43.1953,-34.8223 -11.2163,-9.2707 -19.3879,-12.7676 -25.5371,-12.5566 z m 922.23235,8.3086 c -16.4248,0.5634 -18.4439,27.5442 -25.6582,41.3789 -37.54895,72.0074 62.8883,306.5454 -54.00385,272.0996 -2.1324,-0.6284 -4.0885,-1.4063 -5.8867,-2.3184 3.4804,3.7653 8.0307,6.5927 13.8867,8.3184 116.89215,34.4458 16.45485,-200.0922 54.00385,-272.0996 9.2272,-17.6949 9.9555,-56.8942 43.1973,-34.8203 -11.2174,-9.2719 -19.3895,-12.7696 -25.5391,-12.5586 z m -660.68935,3.3242 c -6.3427,0.071 -16.3839,3.928 -31.7188,13.1289 -37.3585,22.4151 -26.7081,31.8204 -74.7754,37.3867 -10.6452,1.2328 -18.5983,-0.4248 -24.7148,-3.6738 6.726,6.8374 16.671,11.5318 32.7148,9.6738 48.0673,-5.5663 37.4169,-14.9716 74.7754,-37.3867 16.0262,-9.6157 26.2693,-13.3927 32.5527,-13.1133 -1.2065,-3.8102 -3.889,-6.0708 -8.8339,-6.0156 z m 922.23235,8.3086 c -6.3426,0.071 -16.382,3.928 -31.7168,13.1289 -37.3585,22.4151 -26.71,31.8204 -74.7774,37.3867 -10.6429,1.2325 -18.5949,-0.4242 -24.7109,-3.6718 6.726,6.8352 16.6702,11.5294 32.7109,9.6718 48.0674,-5.5663 37.4189,-14.9716 74.7774,-37.3867 16.0262,-9.6157 26.2672,-13.3927 32.5508,-13.1133 -1.2067,-3.8102 -3.8891,-6.0708 -8.834,-6.0156 z m -1083.51755,0.5254 c -0.4129,0 -0.8426,0.043 -1.291,0.1406 -34.1892,7.4645 15.7866,137.1614 -22.8477,149.5508 -9.4852,3.0418 -16.5147,3.4641 -21.6582,1.8184 4.769,7.0276 13.7717,9.2762 29.6582,4.1816 38.6343,-12.3894 -11.3415,-142.0863 22.8477,-149.5508 0.09,-0.02 0.1769,-0.029 0.2656,-0.045 -2.002,-3.6625 -4.0779,-6.0767 -6.9746,-6.0957 z m 922.23435,8.3086 c -0.4129,0 -0.8426,0.043 -1.291,0.1406 -34.1893,7.4645 15.7846,137.1614 -22.8496,149.5508 -9.4861,3.042 -16.5145,3.4627 -21.6582,1.8164 4.7687,7.0287 13.7706,9.2785 29.6582,4.1836 38.6342,-12.3894 -11.3397,-142.0863 22.8496,-149.5508 0.09,-0.02 0.1754,-0.027 0.2636,-0.043 -2.0022,-3.6633 -4.0756,-6.0786 -6.9726,-6.0976 z m 719.3099,14.3504 c -15.1642,14.1746 -22.1019,24.4988 -40.9349,14.6008 17.3458,17.3262 24.1004,11.7804 40.9349,-1.6672 z m -963.25515,5.4113 c 10.1341,9.8254 20.6061,10.0013 31.4961,16.3867 -10.8947,-10.1531 -21.3687,-10.6303 -31.4961,-16.3867 z m -899.343807,1.3594 v 2.1992 c 2.6666,1.0767 5.3718,2.2502 8.1485,3.8711 -2.7894,-2.6138 -5.4976,-4.5321 -8.1485,-6.0703 z"
         style="fill:#f8d7c5;fill-opacity:1;fill-rule:evenodd;stroke:none;stroke-width:0.99999994px;stroke-linecap:butt;stroke-linejoin:miter;stroke-opacity:1;filter:url(#filter5719-0)"
         transform="matrix(0.26169073,0,0,0.26458333,-242.16979,-35.50061)" />
    </g>
  </g>
</svg>
