<?xml version="1.0" encoding="utf-8"?>
<!-- Generator: Adobe Illustrator 23.0.4, SVG Export Plug-In . SVG Version: 6.00 Build 0)  -->
<svg version="1.1"
	 id="svg8266" xmlns:cc="http://creativecommons.org/ns#" xmlns:dc="http://purl.org/dc/elements/1.1/" xmlns:rdf="http://www.w3.org/1999/02/22-rdf-syntax-ns#" xmlns:svg="http://www.w3.org/2000/svg"
	 xmlns="http://www.w3.org/2000/svg" xmlns:xlink="http://www.w3.org/1999/xlink" x="0px" y="0px" viewBox="0 0 1408.3 2127.9"
	 style="enable-background:new 0 0 1408.3 2127.9;" xml:space="preserve">
<style type="text/css">
	.st0{fill-rule:evenodd;clip-rule:evenodd;fill:#DB2020;}
	.st1{fill-rule:evenodd;clip-rule:evenodd;fill:#F8D7C5;}
</style>
<g id="layer1" transform="translate(242.06368,417.885)">
	<g id="g8860">
		<path id="path6073-1" class="st0" d="M-99.4-423.4c-63.4,0.1-110.9,5.3-142.7,10.5V1492c8.4,4.3,17,4.3,27.2,19.9
			c37.5,57.6-30.8,169.7,17.1,183.8c87.7,25.8,12.3-150.1,40.5-204.1c8.1-15.4,7.5-52.7,46.7-14c29.3,28.9-25.3,128.2,29.6,110.6
			c29-9.3-8.5-106.6,17.1-112.2c10.8-2.3,7,35.2,42.1,31.2c36.1-4.2,28.1-11.2,56.1-28c70.1-42.1-7.3,64.8,38.9,56.1
			c37.9-7.1-16.6-87,31.2-98.1c69.8-16.3-25.2,220.9,31.2,232.1c69.3,13.7,60.1-117.3,46.7-183.8c-9.2-45.6,57.5-105.2,62.3-62.3
			c2.3,20.6-29.3,137.2,17.1,129.3c52.7-8.9,4.1-91.1,17.1-134c16.5-54.2,41-24.4,53,7.8c33.8,90.9-40,239.5,18.7,239.9
			c62.6,0.4,1.1-124.7,20.3-193.2c23.7-84.7,42-51.8,56-3.1c15.5,42.1,31.9,20.6,49.9,48.3c37.5,57.6-30.8,169.7,17.1,183.8
			c87.7,25.8,12.3-150.1,40.5-204.1c8.1-15.4,7.5-52.7,46.7-14c29.3,28.9-25.3,128.2,29.6,110.6c29-9.3-8.5-106.6,17.1-112.2
			c10.8-2.3,7.1,35.2,42.1,31.2c36.1-4.2,28.1-11.2,56.1-28c70.1-42.1-7.3,64.8,38.9,56.1c37.9-7.1-16.6-87,31.2-98.1
			c69.8-16.3-25.2,220.9,31.2,232.1c69.3,13.7,60.1-117.3,46.7-183.8c-9.2-45.6,57.5-105.2,62.3-62.3
			c2.3,20.6-29.3,137.2,17.1,129.3c52.7-8.9,4.1-91.1,17.1-134c16.5-54.2,41-24.4,53,7.8c33.8,90.9-40,239.5,18.7,239.9
			c62.6,0.4,1.1-124.7,20.3-193.2c23.7-84.7,42-51.8,56.1-4.7c11.2,37.4,31.1,35.7,47.6,25.6V-383.4
			c-135.2-9.6-341.1-25.8-521.5-26.8c-92-0.5-178.9,22.6-269.5,21.8c-120.9-1.1-300.5-30-433.1-34.3
			C-72.4-423.2-86.2-423.4-99.4-423.4L-99.4-423.4z"/>
		<path id="path6075-4" class="st1" d="M295.7,1380.2c-7.9-0.2-15.8,7.9-22.4,30c-12.9,42.8,35.2,125-16.9,134
			c-4.4,0.8-8.1,0.4-11.2-1c3.9,4.6,9.4,6.8,17.1,5.5c52.1-8.9,4-91.1,16.9-134c8.3-27.5,18.6-33.4,28.3-28.3
			C303.7,1382.6,299.7,1380.3,295.7,1380.2L295.7,1380.2z M979.8,1386.4c-7.9-0.2-15.8,7.9-22.4,30c-12.9,42.8,35.2,125-16.9,134
			c-4.4,0.8-8.1,0.4-11.2-1c3.9,4.6,9.4,6.8,17.1,5.5c52.1-8.9,4-91.1,16.9-134c8.3-27.5,18.6-33.4,28.3-28.3
			C987.8,1388.8,983.8,1386.5,979.8,1386.4z M227.2,1400c-0.2,0-0.5,0-0.8,0c-20.1,0.8-55.5,42.9-48.7,77.1
			c13.2,66.5,22.3,197.6-46.2,183.8c-1.4-0.3-2.7-0.7-3.9-1.3c2.6,3,5.8,5,9.8,5.8c68.5,13.7,59.4-117.3,46.2-183.8
			c-7.3-36.5,33.6-82,52.6-76.7C234.1,1401.6,231,1400,227.2,1400L227.2,1400z M911.3,1406.2c-0.2,0-0.5,0-0.8,0
			c-20.1,0.8-55.5,42.9-48.7,77.1c13.2,66.5,22.3,197.6-46.2,183.8c-1.4-0.3-2.7-0.7-3.9-1.3c2.6,3,5.8,5,9.8,5.8
			c68.5,13.7,59.4-117.3,46.2-183.8c-7.3-36.5,33.6-82,52.6-76.7C918.2,1407.8,915.1,1406.3,911.3,1406.2L911.3,1406.2z
			 M392.8,1412.4c-8.5-0.4-18,13.8-28.6,52.2c-18.9,68.5,41.9,193.6-20,193.2c-3.9,0-7.2-0.7-10-2c3.6,4.2,8.8,6.5,16,6.5
			c61.9,0.4,1.1-124.7,20-193.2c11.5-41.8,21.8-55,30.9-51.7C398.4,1414.4,395.7,1412.6,392.8,1412.4L392.8,1412.4z M1076.9,1418.5
			c-8.5-0.3-18.1,14-28.7,52.3c-18.9,68.5,41.9,193.6-20,193.2c-3.9,0-7.2-0.7-10-2c3.6,4.2,8.8,6.5,16,6.5
			c61.9,0.4,1.1-124.7,20-193.2c11.6-42.1,22-55.2,31.1-51.8C1082.7,1420.4,1079.9,1418.6,1076.9,1418.5L1076.9,1418.5z M106.7,1428
			c-1.8,0-3.8,0.3-6,0.8c-47.3,11.2,6.6,91-30.8,98.1c-3.3,0.6-6,0.6-8.1,0.2c2,3.9,6.3,5.8,14.1,4.3c37.5-7.1-16.4-87,30.8-98.1
			c5.2-1.2,9.5-1,13,0.5C116.6,1430,112.3,1427.9,106.7,1428L106.7,1428z M790.8,1434.2c-1.8,0-3.8,0.3-6,0.8
			c-47.3,11.2,6.6,91-30.8,98.1c-3.3,0.6-6,0.6-8.1,0.2c2,3.9,6.3,5.8,14.1,4.3c37.5-7.1-16.4-87,30.8-98.1c5.2-1.2,9.5-1,13,0.5
			C800.7,1436.2,796.4,1434.1,790.8,1434.2z M-139.1,1452.3c-12.2,0.4-13.7,20.7-19,31c-27.9,54,46.7,229.9-40.1,204.1
			c-1.6-0.5-3-1.1-4.4-1.7c2.6,2.8,6,4.9,10.3,6.2c86.7,25.8,12.2-150.1,40.1-204.1c6.8-13.3,7.4-42.7,32-26.1
			C-128.5,1454.8-134.6,1452.1-139.1,1452.3z M545,1458.5c-12.2,0.4-13.7,20.7-19,31c-27.9,54,46.7,229.9-40.1,204.1
			c-1.6-0.5-3-1.1-4.4-1.7c2.6,2.8,6,4.9,10.3,6.2c86.7,25.8,12.2-150.1,40.1-204.1c6.8-13.3,7.4-42.7,32-26.1
			C555.6,1461,549.6,1458.4,545,1458.5z M54.9,1461c-4.7,0.1-12.2,2.9-23.5,9.8c-27.7,16.8-19.8,23.9-55.5,28
			c-7.9,0.9-13.8-0.3-18.3-2.8c5,5.1,12.4,8.6,24.3,7.3c35.7-4.2,27.8-11.2,55.5-28c11.9-7.2,19.5-10,24.1-9.8
			C60.6,1462.7,58.6,1461,54.9,1461z M739,1467.2c-4.7,0.1-12.2,2.9-23.5,9.8c-27.7,16.8-19.8,23.9-55.5,28
			c-7.9,0.9-13.8-0.3-18.3-2.8c5,5.1,12.4,8.6,24.3,7.3c35.7-4.2,27.8-11.2,55.5-28c11.9-7.2,19.5-10,24.1-9.8
			C744.7,1468.9,742.7,1467.2,739,1467.2z M-64.7,1467.6c-0.3,0-0.6,0-1,0.1c-25.4,5.6,11.7,102.9-16.9,112.2
			c-7,2.3-12.3,2.6-16.1,1.4c3.5,5.3,10.2,7,22,3.1c28.7-9.3-8.4-106.6,16.9-112.2c0.1,0,0.1,0,0.2,0
			C-61.1,1469.5-62.6,1467.7-64.7,1467.6L-64.7,1467.6z M619.4,1473.9c-0.3,0-0.6,0-1,0.1c-25.4,5.6,11.7,102.9-16.9,112.2
			c-7,2.3-12.3,2.6-16.1,1.4c3.5,5.3,10.2,7,22,3.1c28.7-9.3-8.4-106.6,16.9-112.2c0.1,0,0.1,0,0.2,0
			C623.1,1475.7,621.5,1473.9,619.4,1473.9L619.4,1473.9z M1153,1484.6c-11.2,10.6-16.4,18.4-30.4,11c12.9,13,17.9,8.8,30.4-1.3
			V1484.6z M438.4,1488.7c7.5,7.4,15.3,7.5,23.4,12.3C453.7,1493.4,445.9,1493,438.4,1488.7z M-228.7,1489.7v1.6c2,0.8,4,1.7,6,2.9
			C-224.7,1492.3-226.8,1490.9-228.7,1489.7z"/>
	</g>
</g>
</svg>
