<?xml version="1.0" encoding="utf-8"?>
<!-- Generator: Adobe Illustrator 23.0.4, SVG Export Plug-In . SVG Version: 6.00 Build 0)  -->
<svg version="1.1" id="Layer_1" xmlns="http://www.w3.org/2000/svg" xmlns:xlink="http://www.w3.org/1999/xlink" x="0px" y="0px"
	 viewBox="0 0 338.6 260.8" style="enable-background:new 0 0 338.6 260.8;" xml:space="preserve">
<style type="text/css">
	.st0{display:none;}
	.st1{display:inline;fill-rule:evenodd;clip-rule:evenodd;fill:#1446A0;stroke:#1446A0;stroke-width:0.3969;}
	.st2{display:inline;opacity:0.6;fill-rule:evenodd;clip-rule:evenodd;fill:#FFFFFF;enable-background:new    ;}
	.st3{fill-rule:evenodd;clip-rule:evenodd;fill:#DB2020;}
	.st4{fill-rule:evenodd;clip-rule:evenodd;fill:#F8D7C5;}
</style>
<g id="svg5485" xmlns:cc="http://creativecommons.org/ns#" xmlns:dc="http://purl.org/dc/elements/1.1/" xmlns:rdf="http://www.w3.org/1999/02/22-rdf-syntax-ns#" xmlns:svg="http://www.w3.org/2000/svg" class="st0">
	<path id="path6057" class="st1" d="M0.6,0.6v205.2c2.5,2.4,5,1.2,8,6.1c9,14.5-7.4,42.6,4.1,46.2c21,6.5,3-37.7,9.7-51.3
		c1.9-3.9,1.8-13.2,11.2-3.5c7,7.3-6.1,32.2,7.1,27.8c6.9-2.3-2-26.8,4.1-28.2c2.6-0.6,1.7,8.8,10.1,7.8c8.6-1,6.7-2.8,13.4-7
		c16.8-10.6-1.8,16.3,9.3,14.1c9.1-1.8-4-21.8,7.5-24.6c16.7-4.1-6,55.5,7.5,58.3c16.6,3.4,14.4-29.5,11.2-46.2
		c-2.2-11.4,13.8-26.4,14.9-15.6c0.5,5.2-7,34.4,4.1,32.5c12.6-2.2,1-22.9,4.1-33.6c4-13.6,9.8-6.1,12.7,2
		c8.1,22.8-9.6,60.1,4.5,60.3c15,0.1,0.3-31.3,4.9-48.5c5.7-21.3,10.1-13,13.4-0.8c3.7,10.6,7.7,5.2,12,12.1
		c9,14.5-7.4,42.6,4.1,46.2c21,6.5,3-37.7,9.7-51.3c1.9-3.9,1.8-13.2,11.2-3.5c7,7.3-6.1,32.2,7.1,27.8c6.9-2.3-2-26.8,4.1-28.2
		c2.6-0.6,1.7,8.8,10.1,7.8c8.6-1,6.7-2.8,13.4-7c16.8-10.6-1.8,16.3,9.3,14.1c9.1-1.8-4-21.8,7.5-24.6c16.7-4.1-6,55.5,7.5,58.3
		c16.6,3.4,14.4-29.5,11.2-46.2c-2.2-11.4,13.8-26.4,14.9-15.6c0.5,5.2-7,34.4,4.1,32.5c12.6-2.2,1-22.9,4.1-33.6
		c4-13.6,9.8-6.1,12.7,2c8.1,22.8-9.6,60.1,4.5,60.3c15,0.1,0.3-31.3,4.9-48.5c5.7-21.3,9.4-18.1,12.8-6.3
		c2.3,8.2,10.6,8.4,10.6,8.4V0.6H0.6z"/>
	<path id="path6059" class="st2" d="M130.6,179c-1.9-0.1-3.8,2-5.4,7.5c-3.1,10.8,8.5,31.4-4.1,33.6c-1.1,0.2-2,0.1-2.7-0.2
		c0.9,1.2,2.3,1.7,4.1,1.4c12.6-2.2,1-22.9,4.1-33.6c2-6.9,4.5-8.4,6.9-7.1C132.6,179.6,131.6,179,130.6,179z M296.4,180.5
		c-1.9-0.1-3.8,2-5.4,7.5c-3.1,10.8,8.5,31.4-4.1,33.6c-1.1,0.2-2,0.1-2.7-0.2c0.9,1.2,2.3,1.7,4.1,1.4c12.6-2.2,1-22.9,4.1-33.6
		c2-6.9,4.5-8.4,6.9-7.1C298.3,181.1,297.3,180.6,296.4,180.5z M113.8,184c-4.9,0.2-13.5,10.8-11.8,19.4
		c3.2,16.7,5.4,49.6-11.2,46.2c-0.3-0.1-0.7-0.2-0.9-0.3c0.6,0.7,1.4,1.2,2.4,1.4c16.6,3.4,14.4-29.5,11.2-46.2
		c-1.8-9.2,8.1-20.6,12.7-19.3C115.7,184.3,114.8,183.9,113.8,184z M279.6,185.5c-4.9,0.2-13.5,10.8-11.8,19.4
		c3.2,16.7,5.4,49.6-11.2,46.2c-0.3-0.1-0.7-0.2-0.9-0.3c0.6,0.7,1.4,1.2,2.4,1.4c16.6,3.4,14.4-29.5,11.2-46.2
		c-1.8-9.2,8.1-20.6,12.7-19.3C281.4,185.9,280.6,185.5,279.6,185.5z M154.1,187.1c-2.1-0.1-4.4,3.5-6.9,13.1
		c-4.6,17.2,10.2,48.6-4.9,48.5c-0.9,0-1.8-0.2-2.4-0.5c0.9,1.1,2.1,1.6,3.9,1.6c15,0.1,0.3-31.3,4.9-48.5c2.8-10.5,5.3-13.8,7.5-13
		C155.5,187.6,154.8,187.1,154.1,187.1z M319.9,188.6c-2.1-0.1-4.4,3.5-6.9,13.1c-4.6,17.2,10.2,48.6-4.9,48.5
		c-0.9,0-1.8-0.2-2.4-0.5c0.9,1,2.1,1.6,3.9,1.6c15,0.1,0.3-31.3,4.9-48.5c2.8-10.6,5.3-13.9,7.5-13
		C321.3,189.1,320.6,188.6,319.9,188.6z M84.8,191c-0.4,0-0.9,0.1-1.5,0.2C71.9,194,85,214,75.9,215.8c-0.8,0.2-1.5,0.2-2,0
		c0.5,1,1.5,1.5,3.4,1.1c9.1-1.8-4-21.8,7.5-24.6c1.3-0.3,2.3-0.3,3.2,0.1C87.2,191.5,86.2,191,84.8,191z M250.6,192.5
		c-0.4,0-0.9,0.1-1.5,0.2c-11.5,2.8,1.6,22.9-7.5,24.6c-0.8,0.2-1.5,0.2-2,0c0.5,1,1.5,1.5,3.4,1.1c9.1-1.8-4-21.8,7.5-24.6
		c1.3-0.3,2.3-0.3,3.2,0.1C253,193,251.9,192.5,250.6,192.5z M25.3,197.1c-3,0.1-3.3,5.2-4.6,7.8C14,218.5,32,262.6,11,256.2
		c-0.4-0.1-0.7-0.3-1.1-0.4c0.6,0.7,1.4,1.2,2.5,1.6c21,6.5,3-37.7,9.7-51.3c1.7-3.3,1.8-10.7,7.8-6.6
		C27.8,197.7,26.4,197,25.3,197.1z M191,198.6c-3,0.1-3.3,5.2-4.6,7.8c-6.7,13.6,11.3,57.7-9.7,51.3c-0.4-0.1-0.7-0.3-1.1-0.4
		c0.6,0.7,1.4,1.2,2.5,1.6c21,6.5,3-37.7,9.7-51.3c1.7-3.3,1.8-10.7,7.8-6.6C193.6,199.3,192.1,198.6,191,198.6z M72.3,199.3
		c-1.1,0-2.9,0.7-5.7,2.5c-6.7,4.2-4.8,6-13.4,7c-1.9,0.2-3.3-0.1-4.4-0.7c1.2,1.3,3,2.2,5.9,1.8c8.6-1,6.7-2.8,13.4-7
		c2.9-1.8,4.7-2.5,5.9-2.5C73.6,199.7,73.2,199.3,72.3,199.3z M238,200.8c-1.1,0-2.9,0.7-5.7,2.5c-6.7,4.2-4.8,6-13.4,7
		c-1.9,0.2-3.3-0.1-4.4-0.7c1.2,1.3,3,2.2,5.9,1.8c8.6-1,6.7-2.8,13.4-7c2.9-1.8,4.7-2.5,5.9-2.5C239.4,201.3,238.9,200.8,238,200.8
		z M43.3,200.9c-0.1,0-0.2,0-0.2,0c-6.1,1.4,2.8,25.8-4.1,28.2c-1.7,0.6-3,0.7-3.9,0.3c0.9,1.3,2.5,1.7,5.3,0.8
		c6.9-2.3-2-26.8,4.1-28.2l0,0C44.2,201.4,43.8,200.9,43.3,200.9z M209,202.5c-0.1,0-0.2,0-0.2,0c-6.1,1.4,2.8,25.8-4.1,28.2
		c-1.7,0.6-3,0.7-3.9,0.3c0.9,1.3,2.5,1.7,5.3,0.8c6.9-2.3-2-26.8,4.1-28.2l0,0C209.9,203,209.6,202.5,209,202.5z M165.2,206.2
		c1.8,1.9,3.7,1.9,5.7,3.1C168.9,207.4,167,207.3,165.2,206.2z"/>
</g>
<g>
	<g id="layer1_1_" transform="translate(242.06368,417.885)">
		<g id="g8860_1_">
			<path id="path6073-1_1_" class="st3" d="M-207.5-474.6c-15.2,0-26.6,0.6-34.2,1.3v231.8c2,0.5,4.1,0.5,6.5,2.4
				c9,7-7.4,20.6,4.1,22.4c21,3.1,3-18.3,9.7-24.8c1.9-1.9,1.8-6.4,11.2-1.7c7,3.5-6.1,15.6,7.1,13.5c6.9-1.1-2-13,4.1-13.6
				c2.6-0.3,1.7,4.3,10.1,3.8c8.6-0.5,6.7-1.4,13.4-3.4c16.8-5.1-1.8,7.9,9.3,6.8c9.1-0.9-4-10.6,7.5-11.9c16.7-2-6,26.9,7.5,28.2
				c16.6,1.7,14.4-14.3,11.2-22.4c-2.2-5.5,13.8-12.8,14.9-7.6c0.5,2.5-7,16.7,4.1,15.7c12.6-1.1,1-11.1,4.1-16.3
				c4-6.6,9.8-3,12.7,0.9c8.1,11.1-9.6,29.1,4.5,29.2c15,0.1,0.3-15.2,4.9-23.5c5.7-10.3,10.1-6.3,13.4-0.4c3.7,5.1,7.7,2.5,12,5.9
				c9,7-7.4,20.6,4.1,22.4c21,3.1,3-18.3,9.7-24.8c1.9-1.9,1.8-6.4,11.2-1.7c7,3.5-6.1,15.6,7.1,13.5c6.9-1.1-2-13,4.1-13.6
				c2.6-0.3,1.7,4.3,10.1,3.8c8.6-0.5,6.7-1.4,13.4-3.4c16.8-5.1-1.8,7.9,9.3,6.8c9.1-0.9-4-10.6,7.5-11.9c16.7-2-6,26.9,7.5,28.2
				c16.6,1.7,14.4-14.3,11.2-22.4c-2.2-5.5,13.8-12.8,14.9-7.6c0.5,2.5-7,16.7,4.1,15.7c12.6-1.1,1-11.1,4.1-16.3
				c4-6.6,9.8-3,12.7,0.9c8.1,11.1-9.6,29.1,4.5,29.2c15,0.1,0.3-15.2,4.9-23.5c5.7-10.3,10.1-6.3,13.4-0.6
				c2.7,4.6,7.5,4.3,11.4,3.1v-229.2c-32.4-1.2-81.7-3.1-125-3.3c-22-0.1-42.9,2.8-64.6,2.7c-29-0.1-72-3.7-103.8-4.2
				C-201-474.6-204.4-474.6-207.5-474.6L-207.5-474.6z"/>
			<path id="path6075-4_1_" class="st4" d="M-112.8-255.2c-1.9,0-3.8,1-5.4,3.6c-3.1,5.2,8.4,15.2-4.1,16.3c-1.1,0.1-1.9,0-2.7-0.1
				c0.9,0.6,2.3,0.8,4.1,0.7c12.5-1.1,1-11.1,4.1-16.3c2-3.4,4.5-4.1,6.8-3.4C-110.9-254.9-111.9-255.1-112.8-255.2L-112.8-255.2z
				 M51.1-254.4c-1.9,0-3.8,1-5.4,3.6c-3.1,5.2,8.4,15.2-4.1,16.3c-1.1,0.1-1.9,0-2.7-0.1c0.9,0.6,2.3,0.8,4.1,0.7
				c12.5-1.1,1-11.1,4.1-16.3c2-3.4,4.5-4.1,6.8-3.4C53-254.1,52.1-254.4,51.1-254.4z M-129.2-252.7c-0.1,0-0.1,0-0.2,0
				c-4.8,0.1-13.3,5.2-11.7,9.4c3.2,8.1,5.3,24-11.1,22.4c-0.3,0-0.6-0.1-0.9-0.2c0.6,0.4,1.4,0.6,2.4,0.7
				c16.4,1.7,14.2-14.3,11.1-22.4c-1.7-4.4,8.1-10,12.6-9.3C-127.6-252.6-128.4-252.7-129.2-252.7L-129.2-252.7z M34.7-252
				c-0.1,0-0.1,0-0.2,0c-4.8,0.1-13.3,5.2-11.7,9.4c3.2,8.1,5.3,24-11.1,22.4c-0.3,0-0.6-0.1-0.9-0.2c0.6,0.4,1.4,0.6,2.4,0.7
				c16.4,1.7,14.2-14.3,11.1-22.4c-1.7-4.4,8.1-10,12.6-9.3C36.3-251.8,35.6-252,34.7-252L34.7-252z M-89.6-251.2
				c-2-0.1-4.3,1.7-6.9,6.4c-4.5,8.3,10,23.6-4.8,23.5c-0.9,0-1.7-0.1-2.4-0.2c0.9,0.5,2.1,0.8,3.8,0.8c14.8,0.1,0.3-15.2,4.8-23.5
				c2.8-5.1,5.2-6.7,7.4-6.3C-88.2-251-88.9-251.2-89.6-251.2L-89.6-251.2z M74.4-250.5c-2,0-4.3,1.7-6.9,6.4
				c-4.5,8.3,10,23.6-4.8,23.5c-0.9,0-1.7-0.1-2.4-0.2c0.9,0.5,2.1,0.8,3.8,0.8c14.8,0.1,0.3-15.2,4.8-23.5c2.8-5.1,5.3-6.7,7.5-6.3
				C75.7-250.3,75.1-250.5,74.4-250.5L74.4-250.5z M-158.1-249.3c-0.4,0-0.9,0-1.4,0.1c-11.3,1.4,1.6,11.1-7.4,11.9
				c-0.8,0.1-1.4,0.1-2,0c0.5,0.5,1.5,0.7,3.4,0.5c9-0.9-3.9-10.6,7.4-11.9c1.3-0.2,2.3-0.1,3.1,0.1
				C-155.8-249.1-156.8-249.4-158.1-249.3L-158.1-249.3z M5.8-248.6c-0.4,0-0.9,0-1.4,0.1C-7-247.1,6-237.4-3-236.5
				c-0.8,0.1-1.4,0.1-2,0c0.5,0.5,1.5,0.7,3.4,0.5c9-0.9-3.9-10.6,7.4-11.9c1.3-0.2,2.3-0.1,3.1,0.1C8.2-248.3,7.2-248.6,5.8-248.6z
				 M-217-246.4c-2.9,0.1-3.3,2.5-4.6,3.8c-6.7,6.6,11.2,28-9.6,24.8c-0.4-0.1-0.7-0.1-1-0.2c0.6,0.3,1.4,0.6,2.5,0.8
				c20.8,3.1,2.9-18.3,9.6-24.8c1.6-1.6,1.8-5.2,7.7-3.2C-214.5-246.1-215.9-246.4-217-246.4z M-53.1-245.6
				c-2.9,0.1-3.3,2.5-4.6,3.8c-6.7,6.6,11.2,28-9.6,24.8c-0.4-0.1-0.7-0.1-1-0.2c0.6,0.3,1.4,0.6,2.5,0.8
				c20.8,3.1,2.9-18.3,9.6-24.8c1.6-1.6,1.8-5.2,7.7-3.2C-50.6-245.3-52-245.6-53.1-245.6z M-170.5-245.3c-1.1,0-2.9,0.4-5.6,1.2
				c-6.6,2-4.7,2.9-13.3,3.4c-1.9,0.1-3.3,0-4.4-0.3c1.2,0.6,3,1.1,5.8,0.9c8.5-0.5,6.7-1.4,13.3-3.4c2.8-0.9,4.7-1.2,5.8-1.2
				C-169.2-245.1-169.7-245.3-170.5-245.3z M-6.6-244.6c-1.1,0-2.9,0.4-5.6,1.2c-6.6,2-4.7,2.9-13.3,3.4c-1.9,0.1-3.3,0-4.4-0.3
				c1.2,0.6,3,1.1,5.8,0.9c8.5-0.5,6.7-1.4,13.3-3.4C-8-243.7-6.2-244-5-244C-5.3-244.4-5.7-244.6-6.6-244.6z M-199.2-244.5
				c-0.1,0-0.1,0-0.2,0c-6.1,0.7,2.8,12.5-4.1,13.6c-1.7,0.3-2.9,0.3-3.8,0.2c0.8,0.6,2.4,0.8,5.3,0.4c6.9-1.1-2-13,4.1-13.6l0,0
				C-198.3-244.3-198.7-244.5-199.2-244.5L-199.2-244.5z M-35.3-243.8c-0.1,0-0.1,0-0.2,0c-6.1,0.7,2.8,12.5-4.1,13.6
				c-1.7,0.3-2.9,0.3-3.8,0.2c0.8,0.6,2.4,0.8,5.3,0.4c6.9-1.1-2-13,4.1-13.6l0,0C-34.4-243.5-34.8-243.8-35.3-243.8L-35.3-243.8z
				 M92.6-242.4c-2.7,1.3-3.9,2.2-7.3,1.3c3.1,1.6,4.3,1.1,7.3-0.2V-242.4z M-78.6-242c1.8,0.9,3.7,0.9,5.6,1.5
				C-75-241.4-76.8-241.4-78.6-242z M-238.5-241.8v0.2c0.5,0.1,1,0.2,1.4,0.4C-237.6-241.5-238-241.7-238.5-241.8z"/>
		</g>
	</g>
</g>
</svg>
