<?xml version="1.0" encoding="utf-8"?>
<!-- Generator: Adobe Illustrator 23.0.4, SVG Export Plug-In . SVG Version: 6.00 Build 0)  -->
<svg version="1.1"
	 id="svg8266" xmlns:cc="http://creativecommons.org/ns#" xmlns:dc="http://purl.org/dc/elements/1.1/" xmlns:rdf="http://www.w3.org/1999/02/22-rdf-syntax-ns#" xmlns:svg="http://www.w3.org/2000/svg"
	 xmlns="http://www.w3.org/2000/svg" xmlns:xlink="http://www.w3.org/1999/xlink" x="0px" y="0px" viewBox="0 0 1408.3 2127.9"
	 style="enable-background:new 0 0 1408.3 2127.9;" xml:space="preserve">
<style type="text/css">
	.st0{fill-rule:evenodd;clip-rule:evenodd;fill:#DB2020;}
	.st1{fill-rule:evenodd;clip-rule:evenodd;fill:#F8D7C5;}
</style>
<g id="layer1" transform="translate(242.06368,417.885)">
	<g id="g8860">
		<path id="path6073-1" class="st0" d="M-99.4-1213.1c-63.4,0.1-110.9,5.3-142.7,10.5V702.2c8.4,4.3,17,4.3,27.2,19.9
			c37.5,57.6-30.8,169.7,17.1,183.8c87.7,25.8,12.3-150.1,40.5-204.1c8.1-15.4,7.5-52.7,46.7-14c29.3,28.9-25.3,128.2,29.6,110.6
			c29-9.3-8.5-106.6,17.1-112.2c10.8-2.3,7,35.2,42.1,31.2c36.1-4.2,28.1-11.2,56.1-28c70.1-42.1-7.3,64.8,38.9,56.1
			c37.9-7.1-16.6-87,31.2-98.1c69.8-16.3-25.2,220.9,31.2,232.1c69.3,13.7,60.1-117.3,46.7-183.8c-9.2-45.6,57.5-105.2,62.3-62.3
			c2.3,20.6-29.3,137.2,17.1,129.3c52.7-8.9,4.1-91.1,17.1-134c16.5-54.2,41-24.4,53,7.8c33.8,90.9-40,239.5,18.7,239.9
			c62.6,0.4,1.1-124.7,20.3-193.2c23.7-84.7,42-51.8,56-3.1c15.5,42.1,31.9,20.6,49.9,48.3c37.5,57.6-30.8,169.7,17.1,183.8
			c87.7,25.8,12.3-150.1,40.5-204.1c8.1-15.4,7.5-52.7,46.7-14c29.3,28.9-25.3,128.2,29.6,110.6c29-9.3-8.5-106.6,17.1-112.2
			c10.8-2.3,7.1,35.2,42.1,31.2c36.1-4.2,28.1-11.2,56.1-28c70.1-42.1-7.3,64.8,38.9,56.1c37.9-7.1-16.6-87,31.2-98.1
			c69.8-16.3-25.2,220.9,31.2,232.1c69.3,13.7,60.1-117.3,46.7-183.8c-9.2-45.6,57.5-105.2,62.3-62.3
			c2.3,20.6-29.3,137.2,17.1,129.3c52.7-8.9,4.1-91.1,17.1-134c16.5-54.2,41-24.4,53,7.8c33.8,90.9-40,239.5,18.7,239.9
			c62.6,0.4,1.1-124.7,20.3-193.2c23.7-84.7,42-51.8,56.1-4.7c11.2,37.4,31.1,35.7,47.6,25.6v-1883.5
			c-135.2-9.6-341.1-25.8-521.5-26.8c-92-0.5-178.9,22.6-269.5,21.8c-120.9-1.1-300.5-30-433.1-34.3
			C-72.4-1212.9-86.2-1213.1-99.4-1213.1L-99.4-1213.1z"/>
		<path id="path6075-4" class="st1" d="M295.7,590.4c-7.9-0.2-15.8,7.9-22.4,30c-12.9,42.8,35.2,125-16.9,134
			c-4.4,0.8-8.1,0.4-11.2-1c3.9,4.6,9.4,6.8,17.1,5.5c52.1-8.9,4-91.1,16.9-134c8.3-27.5,18.6-33.4,28.3-28.3
			C303.7,592.8,299.7,590.5,295.7,590.4L295.7,590.4z M979.8,596.6c-7.9-0.2-15.8,7.9-22.4,30c-12.9,42.8,35.2,125-16.9,134
			c-4.4,0.8-8.1,0.4-11.2-1c3.9,4.6,9.4,6.8,17.1,5.5c52.1-8.9,4-91.1,16.9-134c8.3-27.5,18.6-33.4,28.3-28.3
			C987.8,599,983.8,596.7,979.8,596.6z M227.2,610.2c-0.2,0-0.5,0-0.8,0c-20.1,0.8-55.5,42.9-48.7,77.1
			c13.2,66.5,22.3,197.6-46.2,183.8c-1.4-0.3-2.7-0.7-3.9-1.3c2.6,3,5.8,5,9.8,5.8c68.5,13.7,59.4-117.3,46.2-183.8
			c-7.3-36.5,33.6-82,52.6-76.7C234.1,611.8,231,610.3,227.2,610.2L227.2,610.2z M911.3,616.5c-0.2,0-0.5,0-0.8,0
			c-20.1,0.8-55.5,42.9-48.7,77.1c13.2,66.5,22.3,197.6-46.2,183.8c-1.4-0.3-2.7-0.7-3.9-1.3c2.6,3,5.8,5,9.8,5.8
			c68.5,13.7,59.4-117.3,46.2-183.8c-7.3-36.5,33.6-82,52.6-76.7C918.2,618.1,915.1,616.5,911.3,616.5L911.3,616.5z M392.8,622.7
			c-8.5-0.4-18,13.8-28.6,52.2c-18.9,68.5,41.9,193.6-20,193.2c-3.9,0-7.2-0.7-10-2c3.6,4.2,8.8,6.5,16,6.5
			c61.9,0.4,1.1-124.7,20-193.2c11.5-41.8,21.8-55,30.9-51.7C398.4,624.6,395.7,622.8,392.8,622.7L392.8,622.7z M1076.9,628.8
			c-8.5-0.3-18.1,14-28.7,52.3c-18.9,68.5,41.9,193.6-20,193.2c-3.9,0-7.2-0.7-10-2c3.6,4.2,8.8,6.5,16,6.5
			c61.9,0.4,1.1-124.7,20-193.2c11.6-42.1,22-55.2,31.1-51.8C1082.7,630.7,1079.9,628.9,1076.9,628.8L1076.9,628.8z M106.7,638.2
			c-1.8,0-3.8,0.3-6,0.8c-47.3,11.2,6.6,91-30.8,98.1c-3.3,0.6-6,0.6-8.1,0.2c2,3.9,6.3,5.8,14.1,4.3c37.5-7.1-16.4-87,30.8-98.1
			c5.2-1.2,9.5-1,13,0.5C116.6,640.2,112.3,638.2,106.7,638.2L106.7,638.2z M790.8,644.5c-1.8,0-3.8,0.3-6,0.8
			c-47.3,11.2,6.6,91-30.8,98.1c-3.3,0.6-6,0.6-8.1,0.2c2,3.9,6.3,5.8,14.1,4.3c37.5-7.1-16.4-87,30.8-98.1c5.2-1.2,9.5-1,13,0.5
			C800.7,646.4,796.4,644.4,790.8,644.5z M-139.1,662.5c-12.2,0.4-13.7,20.7-19,31c-27.9,54,46.7,229.9-40.1,204.1
			c-1.6-0.5-3-1.1-4.4-1.7c2.6,2.8,6,4.9,10.3,6.2c86.7,25.8,12.2-150.1,40.1-204.1c6.8-13.3,7.4-42.7,32-26.1
			C-128.5,665-134.6,662.4-139.1,662.5z M545,668.8c-12.2,0.4-13.7,20.7-19,31c-27.9,54,46.7,229.9-40.1,204.1
			c-1.6-0.5-3-1.1-4.4-1.7c2.6,2.8,6,4.9,10.3,6.2c86.7,25.8,12.2-150.1,40.1-204.1c6.8-13.3,7.4-42.7,32-26.1
			C555.6,671.2,549.6,668.6,545,668.8z M54.9,671.3c-4.7,0.1-12.2,2.9-23.5,9.8c-27.7,16.8-19.8,23.9-55.5,28
			c-7.9,0.9-13.8-0.3-18.3-2.8c5,5.1,12.4,8.6,24.3,7.3c35.7-4.2,27.8-11.2,55.5-28c11.9-7.2,19.5-10,24.1-9.8
			C60.6,672.9,58.6,671.2,54.9,671.3z M739,677.5c-4.7,0.1-12.2,2.9-23.5,9.8c-27.7,16.8-19.8,23.9-55.5,28
			c-7.9,0.9-13.8-0.3-18.3-2.8c5,5.1,12.4,8.6,24.3,7.3c35.7-4.2,27.8-11.2,55.5-28c11.9-7.2,19.5-10,24.1-9.8
			C744.7,679.1,742.7,677.4,739,677.5z M-64.7,677.9c-0.3,0-0.6,0-1,0.1c-25.4,5.6,11.7,102.9-16.9,112.2c-7,2.3-12.3,2.6-16.1,1.4
			c3.5,5.3,10.2,7,22,3.1c28.7-9.3-8.4-106.6,16.9-112.2c0.1,0,0.1,0,0.2,0C-61.1,679.7-62.6,677.9-64.7,677.9L-64.7,677.9z
			 M619.4,684.1c-0.3,0-0.6,0-1,0.1c-25.4,5.6,11.7,102.9-16.9,112.2c-7,2.3-12.3,2.6-16.1,1.4c3.5,5.3,10.2,7,22,3.1
			c28.7-9.3-8.4-106.6,16.9-112.2c0.1,0,0.1,0,0.2,0C623.1,685.9,621.5,684.1,619.4,684.1L619.4,684.1z M1153,694.9
			c-11.2,10.6-16.4,18.4-30.4,11c12.9,13,17.9,8.8,30.4-1.3V694.9z M438.4,698.9c7.5,7.4,15.3,7.5,23.4,12.3
			C453.7,703.6,445.9,703.2,438.4,698.9z M-228.7,700v1.6c2,0.8,4,1.7,6,2.9C-224.7,702.5-226.8,701.1-228.7,700z"/>
	</g>
</g>
</svg>
