<?xml version="1.0" encoding="UTF-8" standalone="no"?>
<svg
   xmlns:dc="http://purl.org/dc/elements/1.1/"
   xmlns:cc="http://creativecommons.org/ns#"
   xmlns:rdf="http://www.w3.org/1999/02/22-rdf-syntax-ns#"
   xmlns:svg="http://www.w3.org/2000/svg"
   xmlns="http://www.w3.org/2000/svg"
   width="143.56715mm"
   height="109.55675mm"
   viewBox="0 0 143.56715 109.55675"
   version="1.1"
   id="svg6069">
  <defs
     id="defs6063">
    <filter
       style="color-interpolation-filters:sRGB"
       id="filter6792"
       x="-0.021037646"
       width="1.0420753"
       y="-0.027933354"
       height="1.0558667">
      <feGaussianBlur
         stdDeviation="4.5643547"
         id="feGaussianBlur6794" />
    </filter>
    <filter
       style="color-interpolation-filters:sRGB"
       id="filter6772"
       x="-0.010529898"
       width="1.0210598"
       y="-0.013947199"
       height="1.0278944">
      <feGaussianBlur
         stdDeviation="2.2738253"
         id="feGaussianBlur6774" />
    </filter>
  </defs>
  <metadata
     id="metadata6066">
    <rdf:RDF>
      <cc:Work
         rdf:about="">
        <dc:format>image/svg+xml</dc:format>
        <dc:type
           rdf:resource="http://purl.org/dc/dcmitype/StillImage" />
        <dc:title></dc:title>
      </cc:Work>
    </rdf:RDF>
  </metadata>
  <g
     transform="matrix(-1,0,0,1,-388.79269,-388.10669)"
     id="g7417">
    <g
       id="g4502">
      <path
         style="opacity:1;fill:#e1deb7;fill-opacity:1;stroke:none;stroke-width:1.99999988;stroke-linecap:round;stroke-linejoin:miter;stroke-miterlimit:4;stroke-dasharray:none;stroke-dashoffset:0;stroke-opacity:1;filter:url(#filter6792)"
         d="m 4735.209,46.472656 c -0.7889,0.02194 -1.6119,0.06793 -2.4688,0.136719 -58.3283,4.682683 -37.6899,89.756125 -55.2617,100.185545 -48.9105,29.03002 -97.3554,-83.184266 -135.3008,-35.08203 -27.5055,53.23676 94.1486,36.97238 60.5528,91.56641 -37.2957,60.60688 -190.2069,-49.23803 -147.166,23.11914 18.0317,30.31366 121.1616,-1.35355 126.4843,35.18945 11.0068,75.5698 -85.1273,53.3767 -76.25,80.61719 12.9423,39.71372 81.5681,-56.11637 135.7227,8.47265 27.4386,32.72554 -45.7468,47.51843 -8.8574,74.98633 41.0335,30.55355 38.2037,-96.24701 83.205,-79.33008 76.7505,28.85205 -12.2949,97.69945 54.4258,91.94727 54.6543,-4.7119 -15.6985,-62.01558 23.8164,-82.70898 51.535,-26.98836 75.9906,39.57437 100.6758,5.67968 31.9937,-51.63825 -98.2002,-12.17591 -65.9355,-83.58789 24.0661,-53.26564 88.7553,57.54298 94.5761,-3.29687 5.8209,-60.83978 -70.9903,11.3129 -73.8945,-55.01172 -1.6324,-37.27982 124.5098,-55.22367 106.5566,-91.49024 -26.4627,-53.456878 -81.6318,89.19446 -151.6562,49.26368 -52.7161,-33.8696 71.5429,-56.32056 35.9375,-82.146488 -31.3002,-22.703244 -50.1591,53.895008 -109.6504,44.763668 -29.0647,-4.4611 54.1908,-94.655596 4.4883,-93.273434 z m -95.6875,24.789063 a 25.105392,21.289026 41.529448 0 0 -10.4649,3.24414 25.105392,21.289026 41.529448 0 0 -2.791,31.601561 25.105392,21.289026 41.529448 0 0 33.1231,7.9668 25.105392,21.289026 41.529448 0 0 2.789,-31.601564 25.105392,21.289026 41.529448 0 0 -22.6562,-11.210937 z m -154.668,278.605471 c -9.5556,-0.089 -25.5338,4.12911 -31.9277,5.63476 -9.2988,2.19062 -16.3558,10.39939 -15.7578,18.33594 0.5971,7.93652 8.6216,12.5963 17.9218,10.40625 9.3003,-2.19005 37.9085,-22.9893 37.3106,-30.92578 -0.1866,-2.48016 -3.2034,-3.4107 -7.5469,-3.45117 z m 442.7383,11.50781 a 17.859986,13.789592 22.585968 0 0 -6.2676,1.37695 17.859986,13.789592 22.585968 0 0 -3.8984,19.26172 17.859986,13.789592 22.585968 0 0 24.1836,6.88086 17.859986,13.789592 22.585968 0 0 3.8965,-19.25976 17.859986,13.789592 22.585968 0 0 -17.9141,-8.25977 z"
         transform="matrix(0.26458333,0,0,0.26458333,-1703.4528,378.71332)"
         id="path7409" />
      <path
         style="opacity:1;fill:#db2020;fill-opacity:1;stroke:none;stroke-width:0.52916664;stroke-linecap:round;stroke-linejoin:miter;stroke-miterlimit:4;stroke-dasharray:none;stroke-dashoffset:0;stroke-opacity:1"
         d="m -451.44946,389.8334 c -0.20873,0.01 -0.42593,0.018 -0.65268,0.036 -15.43277,1.2389 -9.97262,23.7484 -14.62183,26.5079 -12.94079,7.6809 -25.75853,-22.0097 -35.79833,-9.2826 -7.27739,14.0855 24.91054,9.7822 16.02176,24.2269 -9.86779,16.0356 -50.32557,-13.027 -38.93767,6.1175 4.77089,8.0205 32.05684,-0.3587 33.46514,9.31 2.91219,19.9945 -22.52277,14.1226 -20.17398,21.33 3.42432,10.5075 21.58106,-14.8475 35.90943,2.2417 7.25991,8.6586 -12.10328,12.5726 -2.34299,19.8401 10.85678,8.084 10.10756,-25.4653 22.01416,-20.9894 20.3069,7.6338 -3.25306,25.8496 14.40016,24.3277 14.46059,-1.2467 -4.15296,-16.4083 6.30192,-21.8834 13.63541,-7.1407 20.10585,10.4707 26.63714,1.5027 8.465,-13.6626 -25.98267,-3.2215 -17.44596,-22.1159 6.36751,-14.0932 23.48317,15.2249 25.02328,-0.8723 1.54001,-16.0972 -18.78224,2.9932 -19.55075,-14.5552 -0.4319,-9.8636 32.94322,-14.6113 28.19313,-24.2068 -7.00162,-14.1438 -21.59834,23.5994 -40.12573,13.0344 -13.9477,-8.9614 18.92906,-14.9015 9.50846,-21.7346 -8.28159,-6.0069 -13.27168,14.2597 -29.01217,11.8437 -7.68995,-1.1803 14.33796,-25.0443 1.18751,-24.6786 z m -25.31732,6.5588 a 6.6424682,5.6327214 41.529447 0 0 -2.76881,0.8583 6.6424682,5.6327214 41.529447 0 0 -0.73795,8.3613 6.6424682,5.6327214 41.529447 0 0 8.76382,2.1078 6.6424682,5.6327214 41.529447 0 0 0.73792,-8.3612 6.6424682,5.6327214 41.529447 0 0 -5.99498,-2.9662 z m -40.92255,73.7143 c -2.52825,-0.024 -6.75531,1.0925 -8.44703,1.4909 -2.46031,0.5796 -4.32745,2.7515 -4.16926,4.8514 0.15799,2.0999 2.28061,3.3327 4.74131,2.7533 2.46071,-0.5795 10.02996,-6.0826 9.87174,-8.1825 -0.0494,-0.6562 -0.84757,-0.9024 -1.99676,-0.9131 z m 117.14168,3.0448 a 4.7254546,3.6484962 22.585969 0 0 -1.65831,0.3648 4.7254546,3.6484962 22.585969 0 0 -1.03145,5.0958 4.7254546,3.6484962 22.585969 0 0 6.39805,1.8206 4.7254546,3.6484962 22.585969 0 0 1.03148,-5.0958 4.7254546,3.6484962 22.585969 0 0 -4.73977,-2.1854 z"
         id="path7411" />
      <path
         style="opacity:1;fill:#f1a0a0;fill-opacity:1;stroke:none;stroke-width:1.99999988;stroke-linecap:round;stroke-linejoin:miter;stroke-miterlimit:4;stroke-dasharray:none;stroke-dashoffset:0;stroke-opacity:1;filter:url(#filter6772)"
         d="m 4177.2207,30.658203 c 13.305,18.651922 -43.368,84.601717 -18.6191,88.400387 0.1105,0.017 0.2178,0.0266 0.3281,0.043 -7.0099,-16.87424 45.946,-80.229514 18.291,-88.443357 z m -91.3359,26.75 a 25.105392,21.289026 41.529447 0 1 4.1757,4.376953 25.105392,21.289026 41.529447 0 1 -2.789,31.601563 25.105392,21.289026 41.529447 0 1 -22.9492,0.410156 25.105392,21.289026 41.529447 0 0 28.9492,3.589844 25.105392,21.289026 41.529447 0 0 2.789,-31.601563 25.105392,21.289026 41.529447 0 0 -10.1757,-8.376953 z m 184.3496,18.482422 c 28.5425,25.162045 -89.5448,47.380825 -37.918,80.550785 0.5315,0.30307 1.062,0.59475 1.5918,0.87695 -40.7417,-32.14424 74.8453,-53.99965 40.3457,-79.023438 -1.3622,-0.988021 -2.7001,-1.777159 -4.0195,-2.404297 z m -250.8887,14.632813 c 13.115,9.250131 26.7881,22.014482 40.7754,30.728512 -14.0312,-9.82529 -27.7108,-22.667147 -40.7754,-30.728512 z m 359.6172,9.140624 c 1.7685,1.869818 3.4403,4.343278 5.0098,7.513668 17.9531,36.26657 -108.1891,54.21042 -106.5567,91.49024 0.745,17.01167 6.3579,24.90119 14.1856,28.27344 -4.5893,-4.51325 -7.6493,-12.02851 -8.1856,-24.27344 -1.6324,-37.27982 124.5098,-55.22367 106.5567,-91.49024 -3.2461,-6.55732 -6.9254,-10.15901 -11.0098,-11.513668 z m -397.5332,26.873048 c 11.8044,9.24893 32.1294,14.47132 46.0742,22.53906 -11.6166,-9.14082 -31.9714,-14.34953 -46.0742,-22.53906 z m -88.4082,87.48633 c 20.4391,18.55994 85.5542,4.48219 111.8965,17.16992 -18.9614,-17.93364 -84.4569,-3.58634 -111.8965,-17.16992 z m 454.3652,18.23633 c 3.3502,3.926 4.963,10.53797 3.9219,21.41992 -2.5109,26.24237 -15.9826,20.53593 -32.4141,9.84961 19.0516,12.86152 35.6043,23.51658 38.4141,-5.84961 1.5463,-16.16359 -2.7391,-22.93972 -9.9219,-25.41992 z m -71.7949,9.7539 c -7.4068,0.0939 -13.9709,4.14331 -18.8594,14.96289 -10.4473,23.12317 -3.8536,34.61515 8.7442,41.34571 -8.3837,-7.10242 -11.3653,-18.26433 -2.7442,-37.34571 10.9788,-24.29926 30.4083,-14.44506 48.8496,-2.32617 -12.0298,-8.12649 -24.941,-16.7768 -35.9902,-16.63672 z M 4024.5,306.92969 c -33.6135,-0.14683 -65.7685,28.25231 -82.0059,24.17578 15.9388,20.75645 67.5336,-40.25544 114.5,-13.05469 -10.6593,-8.03839 -21.6517,-11.07373 -32.4941,-11.12109 z m 299.6328,11.06836 c 4.789,4.68504 5.3642,11.54734 -1.4629,22.5664 -24.6852,33.89469 -49.1404,-32.66804 -100.6758,-5.67968 -39.5145,20.69336 30.8359,77.99704 -23.8183,82.70898 -8.3264,0.71784 -14.2265,0.27364 -18.3262,-1.10937 3.2798,4.25413 10.4051,6.30955 24.3262,5.10937 54.6542,-4.71194 -15.6962,-62.01562 23.8183,-82.70898 51.5354,-26.98836 75.9906,39.57437 100.6758,5.67968 9.08,-14.65523 5.089,-21.96968 -4.5371,-26.5664 z m -188.2832,6.08789 c -35.4651,-0.11556 -36.7903,101.04237 -70.9394,83.62109 0.5196,0.41976 1.0649,0.8438 1.6367,1.26953 41.0332,30.55351 38.2018,-96.24701 83.2031,-79.33008 4.7348,1.77991 8.8325,3.71212 12.3809,5.76954 -4.6853,-3.57998 -10.6883,-6.87774 -18.3809,-9.76954 -2.8126,-1.0573 -5.4391,-1.55252 -7.9004,-1.56054 z m -215.5918,9.15039 c -0.7692,8.33419 -28.2121,28.18331 -37.2871,30.32031 -3.449,0.81215 -6.7199,0.67868 -9.5039,-0.21094 3.1572,3.92632 9.0156,5.73876 15.5039,4.21094 9.3003,-2.19005 37.9085,-22.98934 37.3105,-30.92578 -0.1626,-2.1779 -2.5126,-3.15988 -6.0234,-3.39453 z m 451.0723,13.47265 a 17.859986,13.789592 22.585969 0 1 2.0586,2.23829 17.859986,13.789592 22.585969 0 1 -3.8985,19.25976 17.859986,13.789592 22.585969 0 1 -16.123,-0.64258 17.859986,13.789592 22.585969 0 0 22.123,4.64258 17.859986,13.789592 22.585969 0 0 3.8985,-19.25976 17.859986,13.789592 22.585969 0 0 -8.0586,-6.23829 z"
         transform="matrix(0.26458333,0,0,0.26458333,-1555.0503,381.9528)"
         id="path7413" />
    </g>
  </g>
</svg>
